<svg version="1.1" viewBox="0.0 0.0 572.2887139107612 300.9160104986877" fill="none" stroke="none" stroke-linecap="square" stroke-miterlimit="10" xmlns:xlink="http://www.w3.org/1999/xlink" xmlns="http://www.w3.org/2000/svg"><clipPath id="p.0"><path d="m0 0l572.2887 0l0 300.91602l-572.2887 0l0 -300.91602z" clip-rule="nonzero"/></clipPath><g clip-path="url(#p.0)"><path fill="#f3f3f3" d="m0 0l572.2887 0l0 300.91602l-572.2887 0z" fill-rule="evenodd"/><path fill="#93c47d" d="m13.9921255 12.522309l199.65355 0l0 263.02362l-199.65355 0z" fill-rule="evenodd"/><path stroke="#000000" stroke-width="1.0" stroke-linejoin="round" stroke-linecap="butt" d="m13.9921255 12.522309l199.65355 0l0 263.02362l-199.65355 0z" fill-rule="evenodd"/><path fill="#000000" d="m24.429626 139.95412l0 -13.359375l4.609375 0q1.546875 0 2.375 0.203125q1.140625 0.25 1.953125 0.953125q1.0625 0.890625 1.578125 2.28125q0.53125 1.390625 0.53125 3.171875q0 1.515625 -0.359375 2.703125q-0.359375 1.171875 -0.921875 1.9375q-0.546875 0.765625 -1.203125 1.21875q-0.65625 0.4375 -1.59375 0.671875q-0.9375 0.21875 -2.140625 0.21875l-4.828125 0zm1.765625 -1.578125l2.859375 0q1.3125 0 2.0625 -0.234375q0.75 -0.25 1.203125 -0.703125q0.625 -0.625 0.96875 -1.6875q0.359375 -1.0625 0.359375 -2.578125q0 -2.09375 -0.6875 -3.21875q-0.6875 -1.125 -1.671875 -1.5q-0.703125 -0.28125 -2.28125 -0.28125l-2.8125 0l0 10.203125zm10.238571 1.578125l5.125 -13.359375l1.90625 0l5.46875 13.359375l-2.015625 0l-1.546875 -4.046875l-5.59375 0l-1.46875 4.046875l-1.875 0zm3.859375 -5.484375l4.53125 0l-1.40625 -3.703125q-0.625 -1.6875 -0.9375 -2.765625q-0.265625 1.28125 -0.71875 2.546875l-1.46875 3.921875zm20.177948 4.046875q1.234375 0.859375 2.265625 1.25l-0.515625 1.21875q-1.4375 -0.515625 -2.875 -1.625q-1.484375 0.828125 -3.28125 0.828125q-1.8125 0 -3.296875 -0.875q-1.46875 -0.875 -2.265625 -2.453125q-0.796875 -1.59375 -0.796875 -3.578125q0 -1.984375 0.796875 -3.59375q0.8125 -1.625 2.28125 -2.46875q1.484375 -0.859375 3.328125 -0.859375q1.84375 0 3.328125 0.890625q1.484375 0.875 2.265625 2.453125q0.78125 1.578125 0.78125 3.5625q0 1.65625 -0.5 2.96875q-0.5 1.3125 -1.515625 2.28125zm-3.890625 -2.25q1.53125 0.421875 2.515625 1.28125q1.5625 -1.421875 1.5625 -4.28125q0 -1.625 -0.546875 -2.828125q-0.546875 -1.21875 -1.609375 -1.875q-1.0625 -0.671875 -2.390625 -0.671875q-1.96875 0 -3.28125 1.359375q-1.296875 1.34375 -1.296875 4.03125q0 2.59375 1.28125 4.0q1.296875 1.390625 3.296875 1.390625q0.953125 0 1.78125 -0.359375q-0.828125 -0.53125 -1.75 -0.765625l0.4375 -1.28125z" fill-rule="nonzero"/><path fill="#000000" fill-opacity="0.0" d="m175.58398 230.75853l175.1496 1.0393677" fill-rule="evenodd"/><path stroke="#4a86e8" stroke-width="4.0" stroke-linejoin="round" stroke-linecap="butt" d="m199.58356 230.90094l127.15048 0.7545471" fill-rule="evenodd"/><path fill="#4a86e8" stroke="#4a86e8" stroke-width="4.0" stroke-linecap="butt" d="m199.62277 224.29413l-18.191269 6.4990997l18.112854 6.7145386z" fill-rule="evenodd"/><path fill="#4a86e8" stroke="#4a86e8" stroke-width="4.0" stroke-linecap="butt" d="m326.69482 238.2623l18.191254 -6.4990997l-18.112854 -6.7145233z" fill-rule="evenodd"/><path fill="#000000" fill-opacity="0.0" d="m172.56824 54.85302l175.1496 1.0393677" fill-rule="evenodd"/><path stroke="#4a86e8" stroke-width="4.0" stroke-linejoin="round" stroke-linecap="butt" d="m196.56781 54.995438l127.15048 0.75453186" fill-rule="evenodd"/><path fill="#4a86e8" stroke="#4a86e8" stroke-width="4.0" stroke-linecap="butt" d="m196.60703 48.388622l-18.191284 6.499096l18.11287 6.714531z" fill-rule="evenodd"/><path fill="#4a86e8" stroke="#4a86e8" stroke-width="4.0" stroke-linecap="butt" d="m323.67908 62.356785l18.191254 -6.499096l-18.112854 -6.714531z" fill-rule="evenodd"/><path fill="#d9ead3" d="m213.64699 215.39108l87.37007 0l0 31.779526l-87.37007 0z" fill-rule="evenodd"/><path stroke="#000000" stroke-width="1.0" stroke-linejoin="round" stroke-linecap="butt" d="m213.64699 215.39108l87.37007 0l0 31.779526l-87.37007 0z" fill-rule="evenodd"/><path fill="#000000" d="m223.03761 232.1467l1.5 -0.140625q0.125 0.75 0.53125 1.109375q0.421875 0.34375 1.125 0.34375q0.75 0 1.125 -0.3125q0.375 -0.3125 0.375 -0.734375q0 -0.265625 -0.15625 -0.453125q-0.15625 -0.1875 -0.5625 -0.328125q-0.265625 -0.09375 -1.234375 -0.34375q-1.234375 -0.296875 -1.734375 -0.75q-0.703125 -0.625 -0.703125 -1.53125q0 -0.59375 0.328125 -1.09375q0.34375 -0.515625 0.953125 -0.78125q0.625 -0.265625 1.5 -0.265625q1.4375 0 2.15625 0.640625q0.734375 0.625 0.78125 1.671875l-1.546875 0.078125q-0.09375 -0.59375 -0.421875 -0.84375q-0.328125 -0.265625 -0.984375 -0.265625q-0.671875 0 -1.046875 0.28125q-0.234375 0.171875 -0.234375 0.46875q0 0.265625 0.21875 0.46875q0.296875 0.234375 1.421875 0.5q1.125 0.265625 1.65625 0.5625q0.546875 0.28125 0.84375 0.78125q0.3125 0.484375 0.3125 1.203125q0 0.65625 -0.375 1.234375q-0.359375 0.5625 -1.03125 0.84375q-0.65625 0.28125 -1.65625 0.28125q-1.4375 0 -2.21875 -0.671875q-0.78125 -0.671875 -0.921875 -1.953125zm7.1076355 0l1.5 -0.140625q0.125 0.75 0.53125 1.109375q0.421875 0.34375 1.125 0.34375q0.75 0 1.125 -0.3125q0.375 -0.3125 0.375 -0.734375q0 -0.265625 -0.15625 -0.453125q-0.15625 -0.1875 -0.5625 -0.328125q-0.265625 -0.09375 -1.234375 -0.34375q-1.234375 -0.296875 -1.734375 -0.75q-0.703125 -0.625 -0.703125 -1.53125q0 -0.59375 0.328125 -1.09375q0.34375 -0.515625 0.953125 -0.78125q0.625 -0.265625 1.5 -0.265625q1.4375 0 2.15625 0.640625q0.734375 0.625 0.78125 1.671875l-1.546875 0.078125q-0.09375 -0.59375 -0.421875 -0.84375q-0.328125 -0.265625 -0.984375 -0.265625q-0.671875 0 -1.046875 0.28125q-0.234375 0.171875 -0.234375 0.46875q0 0.265625 0.21875 0.46875q0.296875 0.234375 1.421875 0.5q1.125 0.265625 1.65625 0.5625q0.546875 0.28125 0.84375 0.78125q0.3125 0.484375 0.3125 1.203125q0 0.65625 -0.375 1.234375q-0.359375 0.5625 -1.03125 0.84375q-0.65625 0.28125 -1.65625 0.28125q-1.4375 0 -2.21875 -0.671875q-0.78125 -0.671875 -0.921875 -1.953125zm7.4982605 2.484375l0 -7.625l1.546875 0l0 3.0l3.015625 0l0 -3.0l1.53125 0l0 7.625l-1.53125 0l0 -3.328125l-3.015625 0l0 3.328125l-1.546875 0zm9.859375 0.125l1.890625 -7.890625l1.09375 0l-1.90625 7.890625l-1.078125 0zm11.32753 -1.484375l0 1.359375l-5.1249847 0q0.078125 -0.765625 0.5 -1.453125q0.421875 -0.703125 1.640625 -1.828125q0.98435974 -0.921875 1.2187347 -1.25q0.296875 -0.453125 0.296875 -0.90625q0 -0.484375 -0.265625 -0.75q-0.265625 -0.265625 -0.71875 -0.265625q-0.45310974 0 -0.73435974 0.28125q-0.265625 0.28125 -0.3125 0.921875l-1.453125 -0.15625q0.125 -1.203125 0.8125 -1.71875q0.6875 -0.53125 1.7187347 -0.53125q1.125 0 1.765625 0.609375q0.65625 0.609375 0.65625 1.515625q0 0.515625 -0.1875 0.984375q-0.1875 0.453125 -0.578125 0.96875q-0.265625 0.34375 -0.96875 0.984375q-0.6875 0.625 -0.875 0.828125q-0.171875 0.203125 -0.29685974 0.40625l2.9062347 0zm5.9265137 0l0 1.359375l-5.125 0q0.078125 -0.765625 0.5 -1.453125q0.421875 -0.703125 1.640625 -1.828125q0.984375 -0.921875 1.21875 -1.25q0.296875 -0.453125 0.296875 -0.90625q0 -0.484375 -0.265625 -0.75q-0.265625 -0.265625 -0.71875 -0.265625q-0.453125 0 -0.734375 0.28125q-0.265625 0.28125 -0.3125 0.921875l-1.453125 -0.15625q0.125 -1.203125 0.8125 -1.71875q0.6875 -0.53125 1.71875 -0.53125q1.125 0 1.765625 0.609375q0.65625 0.609375 0.65625 1.515625q0 0.515625 -0.1875 0.984375q-0.1875 0.453125 -0.578125 0.96875q-0.265625 0.34375 -0.96875 0.984375q-0.6875 0.625 -0.875 0.828125q-0.171875 0.203125 -0.296875 0.40625l2.90625 0zm1.8171082 -2.765625l-0.796875 -0.609375q0.375 -0.421875 0.78125 -0.796875q0.171875 -0.15625 0.203125 -0.203125q-0.125 -0.015625 -0.734375 -0.171875q-0.453125 -0.109375 -0.59375 -0.15625l0.3125 -0.921875q0.6875 0.28125 1.21875 0.609375q-0.125 -0.84375 -0.125 -1.390625l0.921875 0q0 0.390625 -0.140625 1.40625q0.109375 -0.046875 0.453125 -0.203125q0.46875 -0.21875 0.859375 -0.375l0.28125 0.953125q-0.578125 0.125 -1.34375 0.25l0.625 0.703125q0.1875 0.21875 0.296875 0.34375l-0.796875 0.53125l-0.703125 -1.15625q-0.3125 0.5625 -0.71875 1.1875z" fill-rule="nonzero"/><path fill="#cfe2f3" d="m350.73358 12.514436l123.055145 0l0 56.125984l-123.055145 0z" fill-rule="evenodd"/><path stroke="#b7b7b7" stroke-width="1.0" stroke-linejoin="round" stroke-linecap="butt" d="m350.73358 12.514436l123.055145 0l0 56.125984l-123.055145 0z" fill-rule="evenodd"/><path fill="#000000" d="m370.70233 42.809925l1.765625 0.453125q-0.5625 2.171875 -2.0 3.328125q-1.4375 1.140625 -3.53125 1.140625q-2.15625 0 -3.515625 -0.875q-1.34375 -0.890625 -2.0625 -2.546875q-0.703125 -1.671875 -0.703125 -3.59375q0 -2.078125 0.796875 -3.625q0.796875 -1.5625 2.265625 -2.359375q1.484375 -0.8125 3.25 -0.8125q2.0 0 3.359375 1.015625q1.375 1.015625 1.90625 2.875l-1.734375 0.40625q-0.46875 -1.453125 -1.359375 -2.109375q-0.875 -0.671875 -2.203125 -0.671875q-1.546875 0 -2.578125 0.734375q-1.03125 0.734375 -1.453125 1.984375q-0.421875 1.234375 -0.421875 2.5625q0 1.703125 0.5 2.96875q0.5 1.265625 1.546875 1.90625q1.046875 0.625 2.265625 0.625q1.484375 0 2.515625 -0.859375q1.03125 -0.859375 1.390625 -2.546875zm3.6917114 4.6875l0 -13.359375l1.640625 0l0 13.359375l-1.640625 0zm4.191681 -11.46875l0 -1.890625l1.640625 0l0 1.890625l-1.640625 0zm0 11.46875l0 -9.671875l1.640625 0l0 9.671875l-1.640625 0zm10.769836 -3.109375l1.6875 0.203125q-0.40625 1.484375 -1.484375 2.3125q-1.078125 0.8125 -2.765625 0.8125q-2.125 0 -3.375 -1.296875q-1.234375 -1.3125 -1.234375 -3.671875q0 -2.453125 1.25 -3.796875q1.265625 -1.34375 3.265625 -1.34375q1.9375 0 3.15625 1.328125q1.234375 1.3125 1.234375 3.703125q0 0.15625 0 0.4375l-7.21875 0q0.09375 1.59375 0.90625 2.453125q0.8125 0.84375 2.015625 0.84375q0.90625 0 1.546875 -0.46875q0.640625 -0.484375 1.015625 -1.515625zm-5.390625 -2.65625l5.40625 0q-0.109375 -1.21875 -0.625 -1.828125q-0.78125 -0.953125 -2.03125 -0.953125q-1.125 0 -1.90625 0.765625q-0.765625 0.75 -0.84375 2.015625zm9.141327 5.765625l0 -9.671875l1.46875 0l0 1.375q1.0625 -1.59375 3.078125 -1.59375q0.875 0 1.609375 0.3125q0.734375 0.3125 1.09375 0.828125q0.375 0.5 0.515625 1.203125q0.09375 0.453125 0.09375 1.59375l0 5.953125l-1.640625 0l0 -5.890625q0 -1.0 -0.203125 -1.484375q-0.1875 -0.5 -0.671875 -0.796875q-0.484375 -0.296875 -1.140625 -0.296875q-1.046875 0 -1.8125 0.671875q-0.75 0.65625 -0.75 2.515625l0 5.28125l-1.640625 0zm13.953857 -1.46875l0.234375 1.453125q-0.6875 0.140625 -1.234375 0.140625q-0.890625 0 -1.390625 -0.28125q-0.484375 -0.28125 -0.6875 -0.734375q-0.203125 -0.46875 -0.203125 -1.9375l0 -5.578125l-1.203125 0l0 -1.265625l1.203125 0l0 -2.390625l1.625 -0.984375l0 3.375l1.65625 0l0 1.265625l-1.65625 0l0 5.671875q0 0.6875 0.078125 0.890625q0.09375 0.203125 0.28125 0.328125q0.203125 0.109375 0.578125 0.109375q0.265625 0 0.71875 -0.0625zm0.9489136 -1.421875l1.625 -0.25q0.125 0.96875 0.75 1.5q0.625 0.515625 1.75 0.515625q1.125 0 1.671875 -0.453125q0.546875 -0.46875 0.546875 -1.09375q0 -0.546875 -0.484375 -0.875q-0.328125 -0.21875 -1.671875 -0.546875q-1.8125 -0.46875 -2.515625 -0.796875q-0.6875 -0.328125 -1.046875 -0.90625q-0.359375 -0.59375 -0.359375 -1.3125q0 -0.640625 0.296875 -1.1875q0.296875 -0.5625 0.8125 -0.921875q0.375 -0.28125 1.03125 -0.46875q0.671875 -0.203125 1.421875 -0.203125q1.140625 0 2.0 0.328125q0.859375 0.328125 1.265625 0.890625q0.421875 0.5625 0.578125 1.5l-1.609375 0.21875q-0.109375 -0.75 -0.640625 -1.171875q-0.515625 -0.421875 -1.46875 -0.421875q-1.140625 0 -1.625 0.375q-0.46875 0.375 -0.46875 0.875q0 0.3125 0.1875 0.578125q0.203125 0.265625 0.640625 0.4375q0.234375 0.09375 1.4375 0.421875q1.75 0.453125 2.4375 0.75q0.6875 0.296875 1.078125 0.859375q0.390625 0.5625 0.390625 1.40625q0 0.828125 -0.484375 1.546875q-0.46875 0.71875 -1.375 1.125q-0.90625 0.390625 -2.046875 0.390625q-1.875 0 -2.875 -0.78125q-0.984375 -0.78125 -1.25 -2.328125z" fill-rule="nonzero"/><path fill="#cfe2f3" d="m358.96982 23.934383l123.055115 0l0 56.12598l-123.055115 0z" fill-rule="evenodd"/><path stroke="#b7b7b7" stroke-width="1.0" stroke-linejoin="round" stroke-linecap="butt" d="m358.96982 23.934383l123.055115 0l0 56.12598l-123.055115 0z" fill-rule="evenodd"/><path fill="#000000" d="m378.93857 54.229874l1.765625 0.453125q-0.5625 2.171875 -2.0 3.328125q-1.4375 1.140625 -3.53125 1.140625q-2.15625 0 -3.515625 -0.875q-1.34375 -0.890625 -2.0625 -2.546875q-0.703125 -1.671875 -0.703125 -3.59375q0 -2.078125 0.796875 -3.625q0.796875 -1.5625 2.265625 -2.359375q1.484375 -0.8125 3.25 -0.8125q2.0 0 3.359375 1.015625q1.375 1.015625 1.90625 2.875l-1.734375 0.40625q-0.46875 -1.453125 -1.359375 -2.109375q-0.875 -0.671875 -2.203125 -0.671875q-1.546875 0 -2.578125 0.734375q-1.03125 0.734375 -1.453125 1.984375q-0.421875 1.234375 -0.421875 2.5625q0 1.703125 0.5 2.96875q0.5 1.265625 1.546875 1.90625q1.046875 0.625 2.265625 0.625q1.484375 0 2.515625 -0.859375q1.03125 -0.859375 1.390625 -2.546875zm3.691681 4.6875l0 -13.359375l1.640625 0l0 13.359375l-1.640625 0zm4.1917114 -11.46875l0 -1.890625l1.640625 0l0 1.890625l-1.640625 0zm0 11.46875l0 -9.671875l1.640625 0l0 9.671875l-1.640625 0zm10.769806 -3.109375l1.6875 0.203125q-0.40625 1.484375 -1.484375 2.3125q-1.078125 0.8125 -2.765625 0.8125q-2.125 0 -3.375 -1.296875q-1.234375 -1.3125 -1.234375 -3.671875q0 -2.453125 1.25 -3.796875q1.265625 -1.34375 3.265625 -1.34375q1.9375 0 3.15625 1.328125q1.234375 1.3125 1.234375 3.703125q0 0.15625 0 0.4375l-7.21875 0q0.09375 1.59375 0.90625 2.453125q0.8125 0.84375 2.015625 0.84375q0.90625 0 1.546875 -0.46875q0.640625 -0.484375 1.015625 -1.515625zm-5.390625 -2.65625l5.40625 0q-0.109375 -1.21875 -0.625 -1.828125q-0.78125 -0.953125 -2.03125 -0.953125q-1.125 0 -1.90625 0.765625q-0.765625 0.75 -0.84375 2.015625zm9.141357 5.765625l0 -9.671875l1.46875 0l0 1.375q1.0625 -1.59375 3.078125 -1.59375q0.875 0 1.609375 0.3125q0.734375 0.3125 1.09375 0.828125q0.375 0.5 0.515625 1.203125q0.09375 0.453125 0.09375 1.59375l0 5.953125l-1.640625 0l0 -5.890625q0 -1.0 -0.203125 -1.484375q-0.1875 -0.5 -0.671875 -0.796875q-0.484375 -0.296875 -1.140625 -0.296875q-1.046875 0 -1.8125 0.671875q-0.75 0.65625 -0.75 2.515625l0 5.28125l-1.640625 0zm13.953827 -1.46875l0.234375 1.453125q-0.6875 0.140625 -1.234375 0.140625q-0.890625 0 -1.390625 -0.28125q-0.484375 -0.28125 -0.6875 -0.734375q-0.203125 -0.46875 -0.203125 -1.9375l0 -5.578125l-1.203125 0l0 -1.265625l1.203125 0l0 -2.390625l1.625 -0.984375l0 3.375l1.65625 0l0 1.265625l-1.65625 0l0 5.671875q0 0.6875 0.078125 0.890625q0.09375 0.203125 0.28125 0.328125q0.203125 0.109375 0.578125 0.109375q0.265625 0 0.71875 -0.0625zm0.9489441 -1.421875l1.625 -0.25q0.125 0.96875 0.75 1.5q0.625 0.515625 1.75 0.515625q1.125 0 1.671875 -0.453125q0.546875 -0.46875 0.546875 -1.09375q0 -0.546875 -0.484375 -0.875q-0.328125 -0.21875 -1.671875 -0.546875q-1.8125 -0.46875 -2.515625 -0.796875q-0.6875 -0.328125 -1.046875 -0.90625q-0.359375 -0.59375 -0.359375 -1.3125q0 -0.640625 0.296875 -1.1875q0.296875 -0.5625 0.8125 -0.921875q0.375 -0.28125 1.03125 -0.46875q0.671875 -0.203125 1.421875 -0.203125q1.140625 0 2.0 0.328125q0.859375 0.328125 1.265625 0.890625q0.421875 0.5625 0.578125 1.5l-1.609375 0.21875q-0.109375 -0.75 -0.640625 -1.171875q-0.515625 -0.421875 -1.46875 -0.421875q-1.140625 0 -1.625 0.375q-0.46875 0.375 -0.46875 0.875q0 0.3125 0.1875 0.578125q0.203125 0.265625 0.640625 0.4375q0.234375 0.09375 1.4375 0.421875q1.75 0.453125 2.4375 0.75q0.6875 0.296875 1.078125 0.859375q0.390625 0.5625 0.390625 1.40625q0 0.828125 -0.484375 1.546875q-0.46875 0.71875 -1.375 1.125q-0.90625 0.390625 -2.046875 0.390625q-1.875 0 -2.875 -0.78125q-0.984375 -0.78125 -1.25 -2.328125z" fill-rule="nonzero"/><path fill="#cfe2f3" d="m369.33466 34.866142l123.055115 0l0 56.125984l-123.055115 0z" fill-rule="evenodd"/><path stroke="#000000" stroke-width="1.0" stroke-linejoin="round" stroke-linecap="butt" d="m369.33466 34.866142l123.055115 0l0 56.125984l-123.055115 0z" fill-rule="evenodd"/><path fill="#000000" d="m414.7155 64.292885l1.671875 0.53125q-0.375 1.40625 -1.28125 2.09375q-0.90625 0.671875 -2.28125 0.671875q-1.71875 0 -2.828125 -1.15625q-1.09375 -1.171875 -1.09375 -3.203125q0 -2.140625 1.109375 -3.328125q1.109375 -1.1875 2.921875 -1.1875q1.578125 0 2.5625 0.921875q0.578125 0.5625 0.875 1.59375l-1.71875 0.40625q-0.15625 -0.671875 -0.640625 -1.046875q-0.484375 -0.390625 -1.171875 -0.390625q-0.953125 0 -1.546875 0.6875q-0.59375 0.671875 -0.59375 2.21875q0 1.625 0.578125 2.3125q0.59375 0.6875 1.53125 0.6875q0.6875 0 1.1875 -0.4375q0.5 -0.4375 0.71875 -1.375zm3.1503906 3.15625l0 -8.59375l1.65625 0l0 8.59375l-1.65625 0zm3.3339844 -7.0625l0 -1.53125l1.65625 0l0 1.53125l-1.65625 0zm0 7.0625l0 -6.21875l1.65625 0l0 6.21875l-1.65625 0zm6.9433594 -1.984375l1.640625 0.28125q-0.3125 0.90625 -1.0 1.375q-0.6875 0.46875 -1.703125 0.46875q-1.625 0 -2.40625 -1.0625q-0.625 -0.84375 -0.625 -2.140625q0 -1.546875 0.8125 -2.421875q0.8125 -0.875 2.046875 -0.875q1.390625 0 2.1875 0.921875q0.8125 0.90625 0.765625 2.796875l-4.125 0q0.03125 0.734375 0.40625 1.140625q0.375 0.40625 0.953125 0.40625q0.375 0 0.640625 -0.203125q0.265625 -0.21875 0.40625 -0.6875zm0.09375 -1.65625q-0.015625 -0.71875 -0.375 -1.09375q-0.34375 -0.375 -0.859375 -0.375q-0.53125 0 -0.890625 0.390625q-0.34375 0.40625 -0.34375 1.078125l2.46875 0zm8.626953 3.640625l-1.640625 0l0 -3.171875q0 -1.015625 -0.109375 -1.3125q-0.09375 -0.296875 -0.34375 -0.453125q-0.234375 -0.171875 -0.5625 -0.171875q-0.4375 0 -0.78125 0.234375q-0.328125 0.234375 -0.453125 0.625q-0.125 0.390625 -0.125 1.4375l0 2.8125l-1.65625 0l0 -6.21875l1.53125 0l0 0.90625q0.8125 -1.046875 2.0625 -1.046875q0.53125 0 0.984375 0.203125q0.453125 0.1875 0.6875 0.5q0.234375 0.296875 0.3125 0.6875q0.09375 0.375 0.09375 1.09375l0 3.875zm4.533203 -6.21875l0 1.3125l-1.125 0l0 2.5q0 0.765625 0.03125 0.890625q0.03125 0.125 0.140625 0.21875q0.125 0.078125 0.28125 0.078125q0.234375 0 0.65625 -0.171875l0.140625 1.28125q-0.5625 0.25 -1.296875 0.25q-0.4375 0 -0.796875 -0.140625q-0.359375 -0.15625 -0.53125 -0.390625q-0.15625 -0.25 -0.234375 -0.640625q-0.046875 -0.296875 -0.046875 -1.171875l0 -2.703125l-0.75 0l0 -1.3125l0.75 0l0 -1.234375l1.65625 -0.96875l0 2.203125l1.125 0zm0.55859375 4.4375l1.65625 -0.25q0.109375 0.484375 0.421875 0.734375q0.328125 0.25 0.90625 0.25q0.640625 0 0.953125 -0.234375q0.21875 -0.171875 0.21875 -0.4375q0 -0.1875 -0.109375 -0.3125q-0.125 -0.125 -0.546875 -0.21875q-2.0 -0.4375 -2.53125 -0.796875q-0.734375 -0.515625 -0.734375 -1.40625q0 -0.8125 0.625 -1.359375q0.640625 -0.546875 1.984375 -0.546875q1.28125 0 1.90625 0.421875q0.625 0.40625 0.859375 1.21875l-1.5625 0.28125q-0.09375 -0.359375 -0.375 -0.546875q-0.28125 -0.203125 -0.796875 -0.203125q-0.640625 0 -0.921875 0.1875q-0.1875 0.125 -0.1875 0.328125q0 0.1875 0.15625 0.3125q0.21875 0.15625 1.53125 0.453125q1.328125 0.296875 1.84375 0.734375q0.515625 0.4375 0.515625 1.21875q0 0.859375 -0.71875 1.484375q-0.703125 0.609375 -2.109375 0.609375q-1.265625 0 -2.015625 -0.515625q-0.734375 -0.515625 -0.96875 -1.40625z" fill-rule="nonzero"/><path fill="#1155cc" d="m383.14072 56.41219l0 0c0 -2.616581 2.1211548 -4.7377396 4.737732 -4.7377396l0 0c1.2565308 0 2.461609 0.49915314 3.3500977 1.3876495c0.88848877 0.8885002 1.3876648 2.093563 1.3876648 3.35009l0 0c0 2.6165848 -2.1211853 4.7377434 -4.7377625 4.7377434l0 0c-2.6165771 0 -4.737732 -2.1211586 -4.737732 -4.7377434z" fill-rule="evenodd"/><path fill="#1155cc" d="m387.87793 61.146576l0 0l0 0c1.9291687 0 3.7792969 0.7663536 5.1434326 2.130474c1.3641052 1.3641167 2.1304626 3.21426 2.1304626 5.143421l0 7.2738876c0 6.866455E-5 -6.1035156E-5 1.2207031E-4 -1.2207031E-4 1.2207031E-4l-14.547668 -1.2207031E-4l0 0c-6.1035156E-5 0 -1.2207031E-4 -5.340576E-5 -1.2207031E-4 -1.2207031E-4l1.2207031E-4 -7.2737656l0 0c0 -4.0172653 3.2566223 -7.2738953 7.2738953 -7.2738953z" fill-rule="evenodd"/><path fill="#d9ead3" d="m213.64699 39.48294l87.37007 0l0 31.779526l-87.37007 0z" fill-rule="evenodd"/><path stroke="#000000" stroke-width="1.0" stroke-linejoin="round" stroke-linecap="butt" d="m213.64699 39.48294l87.37007 0l0 31.779526l-87.37007 0z" fill-rule="evenodd"/><path fill="#000000" d="m215.56886 53.88044l0 -1.28125l1.28125 0l0 1.28125l-1.28125 0zm0 3.5625l0 -1.28125l1.28125 0l0 1.28125l-1.28125 0zm3.6844635 -3.609375q-0.5 -0.203125 -0.734375 -0.5625q-0.21875 -0.375 -0.21875 -0.8125q0 -0.75 0.515625 -1.234375q0.53125 -0.484375 1.484375 -0.484375q0.953125 0 1.484375 0.484375q0.53125 0.484375 0.53125 1.234375q0 0.46875 -0.25 0.828125q-0.234375 0.359375 -0.671875 0.546875q0.546875 0.234375 0.828125 0.671875q0.296875 0.421875 0.296875 0.96875q0 0.9375 -0.59375 1.515625q-0.578125 0.578125 -1.5625 0.578125q-0.90625 0 -1.515625 -0.484375q-0.71875 -0.5625 -0.71875 -1.546875q0 -0.546875 0.265625 -1.0q0.28125 -0.453125 0.859375 -0.703125zm0.265625 -1.28125q0 0.375 0.203125 0.59375q0.21875 0.21875 0.578125 0.21875q0.375 0 0.59375 -0.21875q0.21875 -0.21875 0.21875 -0.59375q0 -0.359375 -0.21875 -0.578125q-0.21875 -0.21875 -0.578125 -0.21875q-0.359375 0 -0.578125 0.21875q-0.21875 0.21875 -0.21875 0.578125zm-0.125 2.859375q0 0.53125 0.265625 0.828125q0.28125 0.296875 0.6875 0.296875q0.390625 0 0.640625 -0.28125q0.265625 -0.296875 0.265625 -0.828125q0 -0.46875 -0.265625 -0.75q-0.265625 -0.296875 -0.671875 -0.296875q-0.46875 0 -0.703125 0.328125q-0.21875 0.328125 -0.21875 0.703125zm6.109741 -4.671875q0.96875 0 1.515625 0.6875q0.65625 0.828125 0.65625 2.71875q0 1.90625 -0.65625 2.734375q-0.546875 0.671875 -1.515625 0.671875q-0.984375 0 -1.578125 -0.75q-0.59375 -0.75 -0.59375 -2.671875q0 -1.875 0.65625 -2.703125q0.546875 -0.6875 1.515625 -0.6875zm0 1.0625q-0.234375 0 -0.421875 0.15625q-0.171875 0.140625 -0.28125 0.515625q-0.125 0.5 -0.125 1.671875q0 1.171875 0.109375 1.625q0.125 0.4375 0.296875 0.578125q0.1875 0.140625 0.421875 0.140625q0.234375 0 0.40625 -0.140625q0.1875 -0.15625 0.28125 -0.53125q0.140625 -0.5 0.140625 -1.671875q0 -1.171875 -0.125 -1.609375q-0.109375 -0.4375 -0.296875 -0.578125q-0.171875 -0.15625 -0.40625 -0.15625zm5.187866 -1.0625q0.96875 0 1.515625 0.6875q0.65625 0.828125 0.65625 2.71875q0 1.90625 -0.65625 2.734375q-0.546875 0.671875 -1.515625 0.671875q-0.984375 0 -1.578125 -0.75q-0.59375 -0.75 -0.59375 -2.671875q0 -1.875 0.65625 -2.703125q0.546875 -0.6875 1.515625 -0.6875zm0 1.0625q-0.234375 0 -0.421875 0.15625q-0.171875 0.140625 -0.28125 0.515625q-0.125 0.5 -0.125 1.671875q0 1.171875 0.109375 1.625q0.125 0.4375 0.296875 0.578125q0.1875 0.140625 0.421875 0.140625q0.234375 0 0.40625 -0.140625q0.1875 -0.15625 0.28125 -0.53125q0.140625 -0.5 0.140625 -1.671875q0 -1.171875 -0.125 -1.609375q-0.109375 -0.4375 -0.296875 -0.578125q-0.171875 -0.15625 -0.40625 -0.15625zm5.187866 -1.0625q0.96875 0 1.515625 0.6875q0.65625 0.828125 0.65625 2.71875q0 1.90625 -0.65625 2.734375q-0.546875 0.671875 -1.515625 0.671875q-0.984375 0 -1.578125 -0.75q-0.59375 -0.75 -0.59375 -2.671875q0 -1.875 0.65625 -2.703125q0.546875 -0.6875 1.515625 -0.6875zm0 1.0625q-0.234375 0 -0.421875 0.15625q-0.171875 0.140625 -0.28125 0.515625q-0.125 0.5 -0.125 1.671875q0 1.171875 0.109375 1.625q0.125 0.4375 0.296875 0.578125q0.1875 0.140625 0.421875 0.140625q0.234375 0 0.40625 -0.140625q0.1875 -0.15625 0.28125 -0.53125q0.140625 -0.5 0.140625 -1.671875q0 -1.171875 -0.125 -1.609375q-0.109375 -0.4375 -0.296875 -0.578125q-0.171875 -0.15625 -0.40625 -0.15625zm3.7347412 2.03125l-0.6875 -0.53125q0.328125 -0.375 0.6875 -0.703125q0.140625 -0.140625 0.171875 -0.171875q-0.109375 -0.015625 -0.640625 -0.15625q-0.390625 -0.09375 -0.515625 -0.140625l0.265625 -0.796875q0.609375 0.234375 1.078125 0.53125q-0.109375 -0.75 -0.109375 -1.21875l0.796875 0q0 0.34375 -0.109375 1.21875q0.078125 -0.03125 0.390625 -0.171875q0.40625 -0.1875 0.75 -0.3125l0.25 0.8125q-0.515625 0.125 -1.171875 0.234375l0.546875 0.609375q0.15625 0.1875 0.25 0.3125l-0.6875 0.453125l-0.625 -1.015625q-0.28125 0.5 -0.640625 1.046875zm5.0968018 3.71875l1.65625 -6.90625l0.953125 0l-1.671875 6.90625l-0.9375 0zm5.777069 -4.953125l1.171875 0l0 0.671875q0.640625 -0.78125 1.515625 -0.78125q0.453125 0 0.796875 0.203125q0.34375 0.1875 0.5625 0.578125q0.328125 -0.390625 0.6875 -0.578125q0.375 -0.203125 0.796875 -0.203125q0.53125 0 0.890625 0.21875q0.375 0.21875 0.5625 0.640625q0.125 0.3125 0.125 1.0l0 3.09375l-1.28125 0l0 -2.765625q0 -0.71875 -0.125 -0.921875q-0.1875 -0.28125 -0.546875 -0.28125q-0.265625 0 -0.515625 0.171875q-0.234375 0.15625 -0.34375 0.484375q-0.09375 0.3125 -0.09375 0.984375l0 2.328125l-1.28125 0l0 -2.65625q0 -0.703125 -0.078125 -0.90625q-0.0625 -0.203125 -0.203125 -0.296875q-0.140625 -0.109375 -0.390625 -0.109375q-0.296875 0 -0.53125 0.171875q-0.234375 0.15625 -0.34375 0.453125q-0.09375 0.296875 -0.09375 1.0l0 2.34375l-1.28125 0l0 -4.84375zm12.825439 4.84375l-1.1875 0l0 -0.703125q-0.296875 0.40625 -0.703125 0.609375q-0.40625 0.203125 -0.8125 0.203125q-0.828125 0 -1.4375 -0.671875q-0.59375 -0.671875 -0.59375 -1.875q0 -1.234375 0.578125 -1.875q0.59375 -0.640625 1.46875 -0.640625q0.8125 0 1.40625 0.6875l0 -2.40625l1.28125 0l0 6.671875zm-3.421875 -2.515625q0 0.765625 0.21875 1.109375q0.3125 0.5 0.859375 0.5q0.453125 0 0.75 -0.375q0.3125 -0.375 0.3125 -1.125q0 -0.828125 -0.296875 -1.1875q-0.296875 -0.375 -0.765625 -0.375q-0.453125 0 -0.765625 0.359375q-0.3125 0.359375 -0.3125 1.09375zm4.229248 1.140625l1.28125 -0.203125q0.078125 0.375 0.328125 0.578125q0.265625 0.1875 0.703125 0.1875q0.5 0 0.75 -0.1875q0.171875 -0.125 0.171875 -0.34375q0 -0.140625 -0.09375 -0.234375q-0.09375 -0.09375 -0.421875 -0.171875q-1.546875 -0.34375 -1.96875 -0.625q-0.578125 -0.390625 -0.578125 -1.09375q0 -0.625 0.5 -1.046875q0.5 -0.4375 1.546875 -0.4375q0.984375 0 1.46875 0.328125q0.484375 0.328125 0.671875 0.953125l-1.21875 0.234375q-0.078125 -0.28125 -0.296875 -0.4375q-0.203125 -0.15625 -0.609375 -0.15625q-0.5 0 -0.71875 0.140625q-0.15625 0.109375 -0.15625 0.265625q0 0.140625 0.140625 0.234375q0.171875 0.125 1.1875 0.359375q1.03125 0.234375 1.4375 0.5625q0.390625 0.34375 0.390625 0.953125q0 0.671875 -0.5625 1.15625q-0.546875 0.46875 -1.640625 0.46875q-0.984375 0 -1.5625 -0.390625q-0.578125 -0.40625 -0.75 -1.09375zm5.640991 -4.125l0 -1.171875l1.28125 0l0 1.171875l-1.28125 0zm0 5.5l0 -4.84375l1.28125 0l0 4.84375l-1.28125 0zm2.5604248 -4.84375l1.1875 0l0 0.71875q0.234375 -0.359375 0.625 -0.59375q0.390625 -0.234375 0.875 -0.234375q0.84375 0 1.4375 0.671875q0.59375 0.65625 0.59375 1.828125q0 1.21875 -0.59375 1.890625q-0.59375 0.671875 -1.4375 0.671875q-0.40625 0 -0.734375 -0.15625q-0.328125 -0.15625 -0.6875 -0.546875l0 2.4375l-1.265625 0l0 -6.6875zm1.265625 2.34375q0 0.8125 0.3125 1.203125q0.328125 0.390625 0.796875 0.390625q0.4375 0 0.734375 -0.359375q0.296875 -0.359375 0.296875 -1.171875q0 -0.765625 -0.3125 -1.125q-0.296875 -0.375 -0.75 -0.375q-0.46875 0 -0.78125 0.359375q-0.296875 0.359375 -0.296875 1.078125z" fill-rule="nonzero"/><path fill="#ffffff" d="m285.21274 39.483078l15.803253 0l0 31.779778l-15.803253 0z" fill-rule="evenodd"/><path stroke="#000000" stroke-width="1.0" stroke-linejoin="round" stroke-linecap="butt" d="m285.21274 39.483078l15.803253 0l0 31.779778l-15.803253 0z" fill-rule="evenodd"/><path fill="#1155cc" d="m285.63208 40.12413l12.134064 5.9094048l0 18.680462l-12.134064 5.9094086z" fill-rule="evenodd"/><path fill="#ffffff" d="m295.7952 55.498543l0 0c0 -0.5036125 0.23776245 -0.91187286 0.5310669 -0.91187286l0 0c0.14083862 0 0.27590942 0.09607315 0.3755188 0.2670822c0.09957886 0.17100906 0.1555481 0.40294647 0.1555481 0.64479065l0 0c0 0.50361633 -0.23779297 0.9118767 -0.5310669 0.9118767l0 0c-0.29330444 0 -0.5310669 -0.40826035 -0.5310669 -0.9118767z" fill-rule="evenodd"/><path fill="#ffffff" d="m285.21274 215.3886l15.803253 0l0 31.77977l-15.803253 0z" fill-rule="evenodd"/><path stroke="#000000" stroke-width="1.0" stroke-linejoin="round" stroke-linecap="butt" d="m285.21274 215.3886l15.803253 0l0 31.77977l-15.803253 0z" fill-rule="evenodd"/><path fill="#1155cc" d="m285.63208 216.02965l12.134064 5.9093933l0 18.680466l-12.134064 5.9094086z" fill-rule="evenodd"/><path fill="#ffffff" d="m295.7952 231.40405l0 0c0 -0.50361633 0.23776245 -0.91186523 0.5310669 -0.91186523l0 0c0.14083862 0 0.27590942 0.096069336 0.3755188 0.26707458c0.09957886 0.17100525 0.1555481 0.4029541 0.1555481 0.64479065l0 0c0 0.50361633 -0.23779297 0.9118805 -0.5310669 0.9118805l0 0c-0.29330444 0 -0.5310669 -0.40826416 -0.5310669 -0.9118805z" fill-rule="evenodd"/><path fill="#cfe2f3" d="m350.73358 192.04199l123.055145 0l0 56.12599l-123.055145 0z" fill-rule="evenodd"/><path stroke="#b7b7b7" stroke-width="1.0" stroke-linejoin="round" stroke-linecap="butt" d="m350.73358 192.04199l123.055145 0l0 56.12599l-123.055145 0z" fill-rule="evenodd"/><path fill="#000000" d="m370.70233 222.33748l1.765625 0.453125q-0.5625 2.171875 -2.0 3.328125q-1.4375 1.140625 -3.53125 1.140625q-2.15625 0 -3.515625 -0.875q-1.34375 -0.890625 -2.0625 -2.546875q-0.703125 -1.671875 -0.703125 -3.59375q0 -2.078125 0.796875 -3.625q0.796875 -1.5625 2.265625 -2.359375q1.484375 -0.8125 3.25 -0.8125q2.0 0 3.359375 1.015625q1.375 1.015625 1.90625 2.875l-1.734375 0.40625q-0.46875 -1.453125 -1.359375 -2.109375q-0.875 -0.671875 -2.203125 -0.671875q-1.546875 0 -2.578125 0.734375q-1.03125 0.734375 -1.453125 1.984375q-0.421875 1.234375 -0.421875 2.5625q0 1.703125 0.5 2.96875q0.5 1.265625 1.546875 1.90625q1.046875 0.625 2.265625 0.625q1.484375 0 2.515625 -0.859375q1.03125 -0.859375 1.390625 -2.546875zm3.6917114 4.6875l0 -13.359375l1.640625 0l0 13.359375l-1.640625 0zm4.191681 -11.46875l0 -1.890625l1.640625 0l0 1.890625l-1.640625 0zm0 11.46875l0 -9.671875l1.640625 0l0 9.671875l-1.640625 0zm10.769836 -3.109375l1.6875 0.203125q-0.40625 1.484375 -1.484375 2.3125q-1.078125 0.8125 -2.765625 0.8125q-2.125 0 -3.375 -1.296875q-1.234375 -1.3125 -1.234375 -3.671875q0 -2.453125 1.25 -3.796875q1.265625 -1.34375 3.265625 -1.34375q1.9375 0 3.15625 1.328125q1.234375 1.3125 1.234375 3.703125q0 0.15625 0 0.4375l-7.21875 0q0.09375 1.59375 0.90625 2.453125q0.8125 0.84375 2.015625 0.84375q0.90625 0 1.546875 -0.46875q0.640625 -0.484375 1.015625 -1.515625zm-5.390625 -2.65625l5.40625 0q-0.109375 -1.21875 -0.625 -1.828125q-0.78125 -0.953125 -2.03125 -0.953125q-1.125 0 -1.90625 0.765625q-0.765625 0.75 -0.84375 2.015625zm9.141327 5.765625l0 -9.671875l1.46875 0l0 1.375q1.0625 -1.59375 3.078125 -1.59375q0.875 0 1.609375 0.3125q0.734375 0.3125 1.09375 0.828125q0.375 0.5 0.515625 1.203125q0.09375 0.453125 0.09375 1.59375l0 5.953125l-1.640625 0l0 -5.890625q0 -1.0 -0.203125 -1.484375q-0.1875 -0.5 -0.671875 -0.796875q-0.484375 -0.296875 -1.140625 -0.296875q-1.046875 0 -1.8125 0.671875q-0.75 0.65625 -0.75 2.515625l0 5.28125l-1.640625 0zm13.953857 -1.46875l0.234375 1.453125q-0.6875 0.140625 -1.234375 0.140625q-0.890625 0 -1.390625 -0.28125q-0.484375 -0.28125 -0.6875 -0.734375q-0.203125 -0.46875 -0.203125 -1.9375l0 -5.578125l-1.203125 0l0 -1.265625l1.203125 0l0 -2.390625l1.625 -0.984375l0 3.375l1.65625 0l0 1.265625l-1.65625 0l0 5.671875q0 0.6875 0.078125 0.890625q0.09375 0.203125 0.28125 0.328125q0.203125 0.109375 0.578125 0.109375q0.265625 0 0.71875 -0.0625zm0.9489136 -1.421875l1.625 -0.25q0.125 0.96875 0.75 1.5q0.625 0.515625 1.75 0.515625q1.125 0 1.671875 -0.453125q0.546875 -0.46875 0.546875 -1.09375q0 -0.546875 -0.484375 -0.875q-0.328125 -0.21875 -1.671875 -0.546875q-1.8125 -0.46875 -2.515625 -0.796875q-0.6875 -0.328125 -1.046875 -0.90625q-0.359375 -0.59375 -0.359375 -1.3125q0 -0.640625 0.296875 -1.1875q0.296875 -0.5625 0.8125 -0.921875q0.375 -0.28125 1.03125 -0.46875q0.671875 -0.203125 1.421875 -0.203125q1.140625 0 2.0 0.328125q0.859375 0.328125 1.265625 0.890625q0.421875 0.5625 0.578125 1.5l-1.609375 0.21875q-0.109375 -0.75 -0.640625 -1.171875q-0.515625 -0.421875 -1.46875 -0.421875q-1.140625 0 -1.625 0.375q-0.46875 0.375 -0.46875 0.875q0 0.3125 0.1875 0.578125q0.203125 0.265625 0.640625 0.4375q0.234375 0.09375 1.4375 0.421875q1.75 0.453125 2.4375 0.75q0.6875 0.296875 1.078125 0.859375q0.390625 0.5625 0.390625 1.40625q0 0.828125 -0.484375 1.546875q-0.46875 0.71875 -1.375 1.125q-0.90625 0.390625 -2.046875 0.390625q-1.875 0 -2.875 -0.78125q-0.984375 -0.78125 -1.25 -2.328125z" fill-rule="nonzero"/><path fill="#cfe2f3" d="m358.96982 203.46194l123.055115 0l0 56.125977l-123.055115 0z" fill-rule="evenodd"/><path stroke="#b7b7b7" stroke-width="1.0" stroke-linejoin="round" stroke-linecap="butt" d="m358.96982 203.46194l123.055115 0l0 56.125977l-123.055115 0z" fill-rule="evenodd"/><path fill="#000000" d="m378.93857 233.75743l1.765625 0.453125q-0.5625 2.171875 -2.0 3.328125q-1.4375 1.140625 -3.53125 1.140625q-2.15625 0 -3.515625 -0.875q-1.34375 -0.890625 -2.0625 -2.546875q-0.703125 -1.671875 -0.703125 -3.59375q0 -2.078125 0.796875 -3.625q0.796875 -1.5625 2.265625 -2.359375q1.484375 -0.8125 3.25 -0.8125q2.0 0 3.359375 1.015625q1.375 1.015625 1.90625 2.875l-1.734375 0.40625q-0.46875 -1.453125 -1.359375 -2.109375q-0.875 -0.671875 -2.203125 -0.671875q-1.546875 0 -2.578125 0.734375q-1.03125 0.734375 -1.453125 1.984375q-0.421875 1.234375 -0.421875 2.5625q0 1.703125 0.5 2.96875q0.5 1.265625 1.546875 1.90625q1.046875 0.625 2.265625 0.625q1.484375 0 2.515625 -0.859375q1.03125 -0.859375 1.390625 -2.546875zm3.691681 4.6875l0 -13.359375l1.640625 0l0 13.359375l-1.640625 0zm4.1917114 -11.46875l0 -1.890625l1.640625 0l0 1.890625l-1.640625 0zm0 11.46875l0 -9.671875l1.640625 0l0 9.671875l-1.640625 0zm10.769806 -3.109375l1.6875 0.203125q-0.40625 1.484375 -1.484375 2.3125q-1.078125 0.8125 -2.765625 0.8125q-2.125 0 -3.375 -1.296875q-1.234375 -1.3125 -1.234375 -3.671875q0 -2.453125 1.25 -3.796875q1.265625 -1.34375 3.265625 -1.34375q1.9375 0 3.15625 1.328125q1.234375 1.3125 1.234375 3.703125q0 0.15625 0 0.4375l-7.21875 0q0.09375 1.59375 0.90625 2.453125q0.8125 0.84375 2.015625 0.84375q0.90625 0 1.546875 -0.46875q0.640625 -0.484375 1.015625 -1.515625zm-5.390625 -2.65625l5.40625 0q-0.109375 -1.21875 -0.625 -1.828125q-0.78125 -0.953125 -2.03125 -0.953125q-1.125 0 -1.90625 0.765625q-0.765625 0.75 -0.84375 2.015625zm9.141357 5.765625l0 -9.671875l1.46875 0l0 1.375q1.0625 -1.59375 3.078125 -1.59375q0.875 0 1.609375 0.3125q0.734375 0.3125 1.09375 0.828125q0.375 0.5 0.515625 1.203125q0.09375 0.453125 0.09375 1.59375l0 5.953125l-1.640625 0l0 -5.890625q0 -1.0 -0.203125 -1.484375q-0.1875 -0.5 -0.671875 -0.796875q-0.484375 -0.296875 -1.140625 -0.296875q-1.046875 0 -1.8125 0.671875q-0.75 0.65625 -0.75 2.515625l0 5.28125l-1.640625 0zm13.953827 -1.46875l0.234375 1.453125q-0.6875 0.140625 -1.234375 0.140625q-0.890625 0 -1.390625 -0.28125q-0.484375 -0.28125 -0.6875 -0.734375q-0.203125 -0.46875 -0.203125 -1.9375l0 -5.578125l-1.203125 0l0 -1.265625l1.203125 0l0 -2.390625l1.625 -0.984375l0 3.375l1.65625 0l0 1.265625l-1.65625 0l0 5.671875q0 0.6875 0.078125 0.890625q0.09375 0.203125 0.28125 0.328125q0.203125 0.109375 0.578125 0.109375q0.265625 0 0.71875 -0.0625zm0.9489441 -1.421875l1.625 -0.25q0.125 0.96875 0.75 1.5q0.625 0.515625 1.75 0.515625q1.125 0 1.671875 -0.453125q0.546875 -0.46875 0.546875 -1.09375q0 -0.546875 -0.484375 -0.875q-0.328125 -0.21875 -1.671875 -0.546875q-1.8125 -0.46875 -2.515625 -0.796875q-0.6875 -0.328125 -1.046875 -0.90625q-0.359375 -0.59375 -0.359375 -1.3125q0 -0.640625 0.296875 -1.1875q0.296875 -0.5625 0.8125 -0.921875q0.375 -0.28125 1.03125 -0.46875q0.671875 -0.203125 1.421875 -0.203125q1.140625 0 2.0 0.328125q0.859375 0.328125 1.265625 0.890625q0.421875 0.5625 0.578125 1.5l-1.609375 0.21875q-0.109375 -0.75 -0.640625 -1.171875q-0.515625 -0.421875 -1.46875 -0.421875q-1.140625 0 -1.625 0.375q-0.46875 0.375 -0.46875 0.875q0 0.3125 0.1875 0.578125q0.203125 0.265625 0.640625 0.4375q0.234375 0.09375 1.4375 0.421875q1.75 0.453125 2.4375 0.75q0.6875 0.296875 1.078125 0.859375q0.390625 0.5625 0.390625 1.40625q0 0.828125 -0.484375 1.546875q-0.46875 0.71875 -1.375 1.125q-0.90625 0.390625 -2.046875 0.390625q-1.875 0 -2.875 -0.78125q-0.984375 -0.78125 -1.25 -2.328125z" fill-rule="nonzero"/><path fill="#cfe2f3" d="m369.33466 214.3937l123.055115 0l0 56.125977l-123.055115 0z" fill-rule="evenodd"/><path stroke="#000000" stroke-width="1.0" stroke-linejoin="round" stroke-linecap="butt" d="m369.33466 214.3937l123.055115 0l0 56.125977l-123.055115 0z" fill-rule="evenodd"/><path fill="#000000" d="m414.7155 243.82045l1.671875 0.53125q-0.375 1.40625 -1.28125 2.09375q-0.90625 0.671875 -2.28125 0.671875q-1.71875 0 -2.828125 -1.15625q-1.09375 -1.171875 -1.09375 -3.203125q0 -2.140625 1.109375 -3.328125q1.109375 -1.1875 2.921875 -1.1875q1.578125 0 2.5625 0.921875q0.578125 0.5625 0.875 1.59375l-1.71875 0.40625q-0.15625 -0.671875 -0.640625 -1.046875q-0.484375 -0.390625 -1.171875 -0.390625q-0.953125 0 -1.546875 0.6875q-0.59375 0.671875 -0.59375 2.21875q0 1.625 0.578125 2.3125q0.59375 0.6875 1.53125 0.6875q0.6875 0 1.1875 -0.4375q0.5 -0.4375 0.71875 -1.375zm3.1503906 3.15625l0 -8.59375l1.65625 0l0 8.59375l-1.65625 0zm3.3339844 -7.0625l0 -1.53125l1.65625 0l0 1.53125l-1.65625 0zm0 7.0625l0 -6.21875l1.65625 0l0 6.21875l-1.65625 0zm6.9433594 -1.984375l1.640625 0.28125q-0.3125 0.90625 -1.0 1.375q-0.6875 0.46875 -1.703125 0.46875q-1.625 0 -2.40625 -1.0625q-0.625 -0.84375 -0.625 -2.140625q0 -1.546875 0.8125 -2.421875q0.8125 -0.875 2.046875 -0.875q1.390625 0 2.1875 0.921875q0.8125 0.90625 0.765625 2.796875l-4.125 0q0.03125 0.734375 0.40625 1.140625q0.375 0.40625 0.953125 0.40625q0.375 0 0.640625 -0.203125q0.265625 -0.21875 0.40625 -0.6875zm0.09375 -1.65625q-0.015625 -0.71875 -0.375 -1.09375q-0.34375 -0.375 -0.859375 -0.375q-0.53125 0 -0.890625 0.390625q-0.34375 0.40625 -0.34375 1.078125l2.46875 0zm8.626953 3.640625l-1.640625 0l0 -3.171875q0 -1.015625 -0.109375 -1.3125q-0.09375 -0.296875 -0.34375 -0.453125q-0.234375 -0.171875 -0.5625 -0.171875q-0.4375 0 -0.78125 0.234375q-0.328125 0.234375 -0.453125 0.625q-0.125 0.390625 -0.125 1.4375l0 2.8125l-1.65625 0l0 -6.21875l1.53125 0l0 0.90625q0.8125 -1.046875 2.0625 -1.046875q0.53125 0 0.984375 0.203125q0.453125 0.1875 0.6875 0.5q0.234375 0.296875 0.3125 0.6875q0.09375 0.375 0.09375 1.09375l0 3.875zm4.533203 -6.21875l0 1.3125l-1.125 0l0 2.5q0 0.765625 0.03125 0.890625q0.03125 0.125 0.140625 0.21875q0.125 0.078125 0.28125 0.078125q0.234375 0 0.65625 -0.171875l0.140625 1.28125q-0.5625 0.25 -1.296875 0.25q-0.4375 0 -0.796875 -0.140625q-0.359375 -0.15625 -0.53125 -0.390625q-0.15625 -0.25 -0.234375 -0.640625q-0.046875 -0.296875 -0.046875 -1.171875l0 -2.703125l-0.75 0l0 -1.3125l0.75 0l0 -1.234375l1.65625 -0.96875l0 2.203125l1.125 0zm0.55859375 4.4375l1.65625 -0.25q0.109375 0.484375 0.421875 0.734375q0.328125 0.25 0.90625 0.25q0.640625 0 0.953125 -0.234375q0.21875 -0.171875 0.21875 -0.4375q0 -0.1875 -0.109375 -0.3125q-0.125 -0.125 -0.546875 -0.21875q-2.0 -0.4375 -2.53125 -0.796875q-0.734375 -0.515625 -0.734375 -1.40625q0 -0.8125 0.625 -1.359375q0.640625 -0.546875 1.984375 -0.546875q1.28125 0 1.90625 0.421875q0.625 0.40625 0.859375 1.21875l-1.5625 0.28125q-0.09375 -0.359375 -0.375 -0.546875q-0.28125 -0.203125 -0.796875 -0.203125q-0.640625 0 -0.921875 0.1875q-0.1875 0.125 -0.1875 0.328125q0 0.1875 0.15625 0.3125q0.21875 0.15625 1.53125 0.453125q1.328125 0.296875 1.84375 0.734375q0.515625 0.4375 0.515625 1.21875q0 0.859375 -0.71875 1.484375q-0.703125 0.609375 -2.109375 0.609375q-1.265625 0 -2.015625 -0.515625q-0.734375 -0.515625 -0.96875 -1.40625z" fill-rule="nonzero"/><path fill="#1155cc" d="m383.14072 235.93974l0 0c0 -2.6165771 2.1211548 -4.737732 4.737732 -4.737732l0 0c1.2565308 0 2.461609 0.4991455 3.3500977 1.3876495c0.88848877 0.888504 1.3876648 2.093567 1.3876648 3.3500824l0 0c0 2.6165924 -2.1211853 4.737747 -4.7377625 4.737747l0 0c-2.6165771 0 -4.737732 -2.1211548 -4.737732 -4.737747z" fill-rule="evenodd"/><path fill="#1155cc" d="m387.87793 240.67413l0 0l0 0c1.9291687 0 3.7792969 0.7663574 5.1434326 2.130478c1.3641052 1.3641205 2.1304626 3.214264 2.1304626 5.1434174l0 7.2738953c0 6.1035156E-5 -6.1035156E-5 1.2207031E-4 -1.2207031E-4 1.2207031E-4l-14.547668 -1.2207031E-4l0 0c-6.1035156E-5 0 -1.2207031E-4 -6.1035156E-5 -1.2207031E-4 -1.2207031E-4l1.2207031E-4 -7.273773l0 0c0 -4.0172577 3.2566223 -7.2738953 7.2738953 -7.2738953z" fill-rule="evenodd"/><path fill="#cfe2f3" d="m104.7664 37.010498l54.708664 0l0 36.72441l-54.708664 0z" fill-rule="evenodd"/><path stroke="#000000" stroke-width="1.0" stroke-linejoin="round" stroke-linecap="butt" d="m104.7664 37.010498l54.708664 0l0 36.72441l-54.708664 0z" fill-rule="evenodd"/><path fill="#000000" d="m116.29579 59.1127l0 -7.625l2.3125 0l1.375 5.203125l1.375 -5.203125l2.3125 0l0 7.625l-1.4375 0l0 -6.0l-1.515625 6.0l-1.484375 0l-1.5 -6.0l0 6.0l-1.4375 0zm8.8923645 -7.625l2.8125 0q0.953125 0 1.453125 0.140625q0.671875 0.203125 1.15625 0.703125q0.484375 0.5 0.734375 1.234375q0.25 0.734375 0.25 1.8125q0 0.9375 -0.234375 1.609375q-0.296875 0.84375 -0.828125 1.359375q-0.390625 0.390625 -1.078125 0.609375q-0.515625 0.15625 -1.359375 0.15625l-2.90625 0l0 -7.625zm1.546875 1.28125l0 5.0625l1.140625 0q0.65625 0 0.9375 -0.078125q0.375 -0.09375 0.625 -0.3125q0.25 -0.234375 0.40625 -0.734375q0.15625 -0.515625 0.15625 -1.40625q0 -0.875 -0.15625 -1.34375q-0.15625 -0.484375 -0.4375 -0.75q-0.28125 -0.265625 -0.71875 -0.359375q-0.328125 -0.078125 -1.265625 -0.078125l-0.6875 0zm5.7737274 3.859375l1.5 -0.140625q0.125 0.75 0.53125 1.109375q0.421875 0.34375 1.125 0.34375q0.75 0 1.125 -0.3125q0.375 -0.3125 0.375 -0.734375q0 -0.265625 -0.15625 -0.453125q-0.15625 -0.1875 -0.5625 -0.328125q-0.265625 -0.09375 -1.234375 -0.34375q-1.234375 -0.296875 -1.734375 -0.75q-0.703125 -0.625 -0.703125 -1.53125q0 -0.59375 0.328125 -1.09375q0.34375 -0.515625 0.953125 -0.78125q0.625 -0.265625 1.5 -0.265625q1.4375 0 2.15625 0.640625q0.734375 0.625 0.78125 1.671875l-1.546875 0.078125q-0.09375 -0.59375 -0.421875 -0.84375q-0.328125 -0.265625 -0.984375 -0.265625q-0.671875 0 -1.046875 0.28125q-0.234375 0.171875 -0.234375 0.46875q0 0.265625 0.21875 0.46875q0.296875 0.234375 1.421875 0.5q1.125 0.265625 1.65625 0.5625q0.546875 0.28125 0.84375 0.78125q0.3125 0.484375 0.3125 1.203125q0 0.65625 -0.375 1.234375q-0.359375 0.5625 -1.03125 0.84375q-0.65625 0.28125 -1.65625 0.28125q-1.4375 0 -2.21875 -0.671875q-0.78125 -0.671875 -0.921875 -1.953125zm7.4826355 -3.796875l0 -1.34375l1.46875 0l0 1.34375l-1.46875 0zm0 6.28125l0 -5.53125l1.46875 0l0 5.53125l-1.46875 0zm2.9137726 -5.53125l1.375 0l0 0.8125q0.265625 -0.40625 0.703125 -0.671875q0.453125 -0.265625 1.015625 -0.265625q0.953125 0 1.625 0.765625q0.671875 0.75 0.671875 2.09375q0 1.390625 -0.671875 2.15625q-0.671875 0.765625 -1.640625 0.765625q-0.453125 0 -0.828125 -0.171875q-0.375 -0.1875 -0.78125 -0.640625l0 2.796875l-1.46875 0l0 -7.640625zm1.453125 2.671875q0 0.9375 0.359375 1.390625q0.375 0.4375 0.90625 0.4375q0.515625 0 0.84375 -0.40625q0.34375 -0.421875 0.34375 -1.34375q0 -0.875 -0.359375 -1.296875q-0.34375 -0.421875 -0.859375 -0.421875q-0.53125 0 -0.890625 0.421875q-0.34375 0.40625 -0.34375 1.21875z" fill-rule="nonzero"/><path fill="#000000" fill-opacity="0.0" d="m132.12073 75.026245l0 137.88977" fill-rule="evenodd"/><path stroke="#4a86e8" stroke-width="2.0" stroke-linejoin="round" stroke-linecap="butt" d="m132.12073 87.026245l0 125.88977" fill-rule="evenodd"/><path fill="#4a86e8" stroke="#4a86e8" stroke-width="2.0" stroke-linecap="butt" d="m135.4242 87.026245l-3.3034668 -9.076195l-3.3034515 9.076195z" fill-rule="evenodd"/><path fill="#d9ead3" d="m116.23039 167.85039l0 -48.724403l31.779526 0l0 48.724403z" fill-rule="evenodd"/><path stroke="#000000" stroke-width="1.0" stroke-linejoin="round" stroke-linecap="butt" d="m116.23039 167.85039l0 -48.724403l31.779526 0l0 48.724403z" fill-rule="evenodd"/><path fill="#000000" d="m134.19038 158.19414l-6.6718674 0l0 -2.015625l4.5468674 -1.21875l-4.5468674 -1.203125l0 -2.015625l6.6718674 0l0 1.25l-5.25 0l5.25 1.328125l0 1.296875l-5.25 1.328125l5.25 0l0 1.25zm-6.6718674 -7.786026l0 -2.46875q0 -0.828125 0.125 -1.265625q0.171875 -0.59375 0.6093674 -1.0q0.4375 -0.421875 1.078125 -0.640625q0.640625 -0.21875 1.578125 -0.21875q0.828125 0 1.421875 0.203125q0.734375 0.25 1.1875 0.703125q0.34375 0.359375 0.53125 0.953125q0.140625 0.453125 0.140625 1.1875l0 2.546875l-6.6718674 0zm1.1249924 -1.34375l4.421875 0l0 -1.015625q0 -0.5625 -0.0625 -0.8125q-0.078125 -0.328125 -0.265625 -0.546875q-0.203125 -0.21875 -0.65625 -0.34375q-0.453125 -0.140625 -1.21875 -0.140625q-0.78125 0 -1.1875 0.140625q-0.421875 0.125 -0.65625 0.375q-0.234375 0.25 -0.3125 0.625q-0.0625 0.28125 -0.0625 1.109375l0 0.609375zm3.375 -5.0646057l-0.125 -1.3125q0.65625 -0.109375 0.96875 -0.46875q0.3125 -0.359375 0.3125 -0.984375q0 -0.640625 -0.28125 -0.96875q-0.28125 -0.34375 -0.640625 -0.34375q-0.234375 0 -0.40625 0.140625q-0.171875 0.140625 -0.28125 0.484375q-0.09375 0.234375 -0.296875 1.078125q-0.265625 1.09375 -0.65625 1.53125q-0.5625 0.609375 -1.34375 0.609375q-0.515625 0 -0.953125 -0.28125q-0.45311737 -0.296875 -0.6874924 -0.84375q-0.234375 -0.546875 -0.234375 -1.3125q0 -1.25 0.5625 -1.890625q0.5468674 -0.640625 1.4687424 -0.671875l0.0625 1.34375q-0.515625 0.09375 -0.734375 0.375q-0.234375 0.28125 -0.234375 0.859375q0 0.59375 0.234375 0.921875q0.15625 0.203125 0.421875 0.203125q0.234375 0 0.40625 -0.1875q0.203125 -0.265625 0.4375 -1.25q0.234375 -0.984375 0.484375 -1.453125q0.25 -0.46875 0.6875 -0.734375q0.421875 -0.265625 1.0625 -0.265625q0.5625 0 1.0625 0.328125q0.5 0.3125 0.75 0.890625q0.25 0.578125 0.25 1.453125q0 1.265625 -0.578125 1.953125q-0.59375 0.671875 -1.71875 0.796875zm-3.328125 -6.5499115l-1.1718674 0l0 -1.28125l1.1718674 0l0 1.28125zm5.5 0l-4.84375 0l0 -1.28125l4.84375 0l0 1.28125zm-4.84375 -2.5604095l0 -1.1875l0.71875 0q-0.359375 -0.234375 -0.59375 -0.625q-0.234375 -0.390625 -0.234375 -0.875q0 -0.84375 0.671875 -1.4375q0.65625 -0.59375 1.828125 -0.59375q1.21875 0 1.890625 0.59375q0.671875 0.59375 0.671875 1.4375q0 0.40625 -0.15625 0.734375q-0.15625 0.328125 -0.546875 0.6875l2.4375 0l0 1.265625l-6.6875 0zm2.34375 -1.265625q0.8125 0 1.203125 -0.3125q0.390625 -0.328125 0.390625 -0.796875q0 -0.4375 -0.359375 -0.734375q-0.359375 -0.296875 -1.171875 -0.296875q-0.765625 0 -1.125 0.3125q-0.375 0.296875 -0.375 0.75q0 0.46875 0.359375 0.78125q0.359375 0.296875 1.078125 0.296875z" fill-rule="nonzero"/><path fill="#cfe2f3" d="m104.7664 212.91602l54.708664 0l0 36.72441l-54.708664 0z" fill-rule="evenodd"/><path stroke="#000000" stroke-width="1.0" stroke-linejoin="round" stroke-linecap="butt" d="m104.7664 212.91602l54.708664 0l0 36.72441l-54.708664 0z" fill-rule="evenodd"/><path fill="#000000" d="m121.55592 232.53384l1.5 -0.140625q0.125 0.75 0.53125 1.109375q0.421875 0.34375 1.125 0.34375q0.75 0 1.125 -0.3125q0.375 -0.3125 0.375 -0.734375q0 -0.265625 -0.15625 -0.453125q-0.15625 -0.1875 -0.5625 -0.328125q-0.265625 -0.09375 -1.234375 -0.34375q-1.234375 -0.296875 -1.734375 -0.75q-0.703125 -0.625 -0.703125 -1.53125q0 -0.59375 0.328125 -1.09375q0.34375 -0.515625 0.953125 -0.78125q0.625 -0.265625 1.5 -0.265625q1.4375 0 2.15625 0.640625q0.734375 0.625 0.78125 1.671875l-1.546875 0.078125q-0.09375 -0.59375 -0.421875 -0.84375q-0.328125 -0.265625 -0.984375 -0.265625q-0.671875 0 -1.046875 0.28125q-0.234375 0.171875 -0.234375 0.46875q0 0.265625 0.21875 0.46875q0.296875 0.234375 1.421875 0.5q1.125 0.265625 1.65625 0.5625q0.546875 0.28125 0.84375 0.78125q0.3125 0.484375 0.3125 1.203125q0 0.65625 -0.375 1.234375q-0.359375 0.5625 -1.03125 0.84375q-0.65625 0.28125 -1.65625 0.28125q-1.4375 0 -2.21875 -0.671875q-0.78125 -0.671875 -0.921875 -1.953125zm7.1076355 0l1.5 -0.140625q0.125 0.75 0.53125 1.109375q0.421875 0.34375 1.125 0.34375q0.75 0 1.125 -0.3125q0.375 -0.3125 0.375 -0.734375q0 -0.265625 -0.15625 -0.453125q-0.15625 -0.1875 -0.5625 -0.328125q-0.265625 -0.09375 -1.234375 -0.34375q-1.234375 -0.296875 -1.734375 -0.75q-0.703125 -0.625 -0.703125 -1.53125q0 -0.59375 0.328125 -1.09375q0.34375 -0.515625 0.953125 -0.78125q0.625 -0.265625 1.5 -0.265625q1.4375 0 2.15625 0.640625q0.734375 0.625 0.78125 1.671875l-1.546875 0.078125q-0.09375 -0.59375 -0.421875 -0.84375q-0.328125 -0.265625 -0.984375 -0.265625q-0.671875 0 -1.046875 0.28125q-0.234375 0.171875 -0.234375 0.46875q0 0.265625 0.21875 0.46875q0.296875 0.234375 1.421875 0.5q1.125 0.265625 1.65625 0.5625q0.546875 0.28125 0.84375 0.78125q0.3125 0.484375 0.3125 1.203125q0 0.65625 -0.375 1.234375q-0.359375 0.5625 -1.03125 0.84375q-0.65625 0.28125 -1.65625 0.28125q-1.4375 0 -2.21875 -0.671875q-0.78125 -0.671875 -0.921875 -1.953125zm7.4982605 2.484375l0 -7.625l1.546875 0l0 3.0l3.015625 0l0 -3.0l1.53125 0l0 7.625l-1.53125 0l0 -3.328125l-3.015625 0l0 3.328125l-1.546875 0z" fill-rule="nonzero"/></g></svg>