<svg version="1.1" viewBox="0.0 0.0 632.514435695538 346.28871391076115" fill="none" stroke="none" stroke-linecap="square" stroke-miterlimit="10" xmlns:xlink="http://www.w3.org/1999/xlink" xmlns="http://www.w3.org/2000/svg"><clipPath id="p.0"><path d="m0 0l632.51447 0l0 346.28873l-632.51447 0l0 -346.28873z" clip-rule="nonzero"/></clipPath><g clip-path="url(#p.0)"><path fill="#f3f3f3" d="m0 0l632.51447 0l0 346.28873l-632.51447 0z" fill-rule="evenodd"/><path fill="#93c47d" d="m15.742783 22.816273l263.49603 0l0 294.9291l-263.49603 0z" fill-rule="evenodd"/><path stroke="#000000" stroke-width="1.0" stroke-linejoin="round" stroke-linecap="butt" d="m15.742783 22.816273l263.49603 0l0 294.9291l-263.49603 0z" fill-rule="evenodd"/><path fill="#000000" d="m128.71434 177.20084l0 -13.359375l4.609375 0q1.546875 0 2.375 0.203125q1.140625 0.25 1.953125 0.953125q1.0625 0.890625 1.578125 2.28125q0.53125 1.390625 0.53125 3.171875q0 1.515625 -0.359375 2.703125q-0.359375 1.171875 -0.921875 1.9375q-0.546875 0.765625 -1.203125 1.21875q-0.65625 0.4375 -1.59375 0.671875q-0.9375 0.21875 -2.140625 0.21875l-4.828125 0zm1.765625 -1.578125l2.859375 0q1.3125 0 2.0625 -0.234375q0.75 -0.25 1.203125 -0.703125q0.625 -0.625 0.96875 -1.6875q0.359375 -1.0625 0.359375 -2.578125q0 -2.09375 -0.6875 -3.21875q-0.6875 -1.125 -1.671875 -1.5q-0.703125 -0.28125 -2.28125 -0.28125l-2.8125 0l0 10.203125zm10.238571 1.578125l5.125 -13.359375l1.90625 0l5.46875 13.359375l-2.015625 0l-1.546875 -4.046875l-5.59375 0l-1.46875 4.046875l-1.875 0zm3.859375 -5.484375l4.53125 0l-1.40625 -3.703125q-0.625 -1.6875 -0.9375 -2.765625q-0.265625 1.28125 -0.71875 2.546875l-1.46875 3.921875zm20.177948 4.046875q1.234375 0.859375 2.265625 1.25l-0.515625 1.21875q-1.4375 -0.515625 -2.875 -1.625q-1.484375 0.828125 -3.28125 0.828125q-1.8125 0 -3.296875 -0.875q-1.46875 -0.875 -2.265625 -2.453125q-0.796875 -1.59375 -0.796875 -3.578125q0 -1.984375 0.796875 -3.59375q0.8125 -1.625 2.28125 -2.46875q1.484375 -0.859375 3.328125 -0.859375q1.84375 0 3.328125 0.890625q1.484375 0.875 2.265625 2.453125q0.78125 1.578125 0.78125 3.5625q0 1.65625 -0.5 2.96875q-0.5 1.3125 -1.515625 2.28125zm-3.890625 -2.25q1.53125 0.421875 2.515625 1.28125q1.5625 -1.421875 1.5625 -4.28125q0 -1.625 -0.546875 -2.828125q-0.546875 -1.21875 -1.609375 -1.875q-1.0625 -0.671875 -2.390625 -0.671875q-1.96875 0 -3.28125 1.359375q-1.296875 1.34375 -1.296875 4.03125q0 2.59375 1.28125 4.0q1.296875 1.390625 3.296875 1.390625q0.953125 0 1.78125 -0.359375q-0.828125 -0.53125 -1.75 -0.765625l0.4375 -1.28125z" fill-rule="nonzero"/><path fill="#000000" fill-opacity="0.0" d="m238.17586 76.47769l217.92125 -0.15747833" fill-rule="evenodd"/><path stroke="#4a86e8" stroke-width="4.0" stroke-linejoin="round" stroke-linecap="butt" d="m262.17584 76.46035l169.92126 -0.122795105" fill-rule="evenodd"/><path fill="#4a86e8" stroke="#4a86e8" stroke-width="4.0" stroke-linecap="butt" d="m262.17108 69.85342l-18.147614 6.6200485l18.157166 6.593811z" fill-rule="evenodd"/><path fill="#4a86e8" stroke="#4a86e8" stroke-width="4.0" stroke-linecap="butt" d="m432.1019 82.94448l18.147614 -6.6200485l-18.157166 -6.5938034z" fill-rule="evenodd"/><path fill="#cfe2f3" d="m474.03412 229.46982l123.055115 0l0 56.125977l-123.055115 0z" fill-rule="evenodd"/><path stroke="#000000" stroke-width="1.0" stroke-linejoin="round" stroke-linecap="butt" d="m474.03412 229.46982l123.055115 0l0 56.125977l-123.055115 0z" fill-rule="evenodd"/><path fill="#000000" d="m484.79214 255.05281l0 -8.59375l2.96875 0q1.0 0 1.53125 0.125q0.734375 0.171875 1.25 0.609375q0.6875 0.578125 1.015625 1.484375q0.34375 0.890625 0.34375 2.03125q0 0.984375 -0.234375 1.734375q-0.21875 0.75 -0.578125 1.25q-0.359375 0.5 -0.796875 0.78125q-0.421875 0.28125 -1.015625 0.4375q-0.59375 0.140625 -1.375 0.140625l-3.109375 0zm1.140625 -1.015625l1.828125 0q0.859375 0 1.34375 -0.15625q0.484375 -0.15625 0.765625 -0.453125q0.40625 -0.390625 0.625 -1.078125q0.234375 -0.6875 0.234375 -1.65625q0 -1.34375 -0.453125 -2.0625q-0.4375 -0.734375 -1.0625 -0.984375q-0.46875 -0.171875 -1.46875 -0.171875l-1.8125 0l0 6.5625zm7.4003906 -6.359375l0 -1.21875l1.0625 0l0 1.21875l-1.0625 0zm0 7.375l0 -6.21875l1.0625 0l0 6.21875l-1.0625 0zm2.4628906 0.515625l1.03125 0.15625q0.0625 0.46873474 0.359375 0.68748474q0.390625 0.296875 1.0625 0.296875q0.734375 0 1.125 -0.296875q0.40625 -0.296875 0.546875 -0.81248474q0.09375 -0.328125 0.078125 -1.359375q-0.6875 0.8125 -1.71875 0.8125q-1.28125 0 -1.984375 -0.921875q-0.703125 -0.9375 -0.703125 -2.21875q0 -0.890625 0.3125 -1.640625q0.328125 -0.765625 0.9375 -1.171875q0.609375 -0.40625 1.4375 -0.40625q1.109375 0 1.828125 0.890625l0 -0.75l0.96875 0l0 5.375q0 1.453125 -0.296875 2.0624847q-0.296875 0.609375 -0.9375 0.953125q-0.640625 0.359375 -1.578125 0.359375q-1.109375 0 -1.796875 -0.5q-0.6875 -0.5 -0.671875 -1.5156097zm0.875 -3.734375q0 1.21875 0.484375 1.78125q0.484375 0.5625 1.21875 0.5625q0.734375 0 1.21875 -0.5625q0.5 -0.5625 0.5 -1.75q0 -1.140625 -0.515625 -1.71875q-0.5 -0.578125 -1.21875 -0.578125q-0.703125 0 -1.203125 0.578125q-0.484375 0.5625 -0.484375 1.6875zm6.001953 -4.15625l0 -1.21875l1.0625 0l0 1.21875l-1.0625 0zm0 7.375l0 -6.21875l1.0625 0l0 6.21875l-1.0625 0zm4.9628906 -0.9375l0.15625 0.921875q-0.453125 0.09375 -0.796875 0.09375q-0.578125 0 -0.890625 -0.171875q-0.3125 -0.1875 -0.453125 -0.484375q-0.125 -0.296875 -0.125 -1.25l0 -3.578125l-0.765625 0l0 -0.8125l0.765625 0l0 -1.546875l1.046875 -0.625l0 2.171875l1.0625 0l0 0.8125l-1.0625 0l0 3.640625q0 0.453125 0.046875 0.578125q0.0625 0.125 0.1875 0.203125q0.125 0.078125 0.359375 0.078125q0.1875 0 0.46875 -0.03125zm1.0371094 -6.4375l0 -1.21875l1.0625 0l0 1.21875l-1.0625 0zm0 7.375l0 -6.21875l1.0625 0l0 6.21875l-1.0625 0zm2.1035156 0l0 -0.859375l3.9687805 -4.546875q-0.6875 0.03125 -1.203125 0.03125l-2.5312805 0l0 -0.84375l5.0937805 0l0 0.6875l-3.375 3.953125l-0.65625 0.71875q0.71875 -0.046875 1.328125 -0.046875l2.890625 0l0 0.90625l-5.5156555 0zm10.8125305 -2.0l1.09375 0.125q-0.25 0.953125 -0.953125 1.484375q-0.703125 0.53125 -1.78125 0.53125q-1.359375 0 -2.171875 -0.84375q-0.796875 -0.84375 -0.796875 -2.359375q0 -1.5625 0.8125 -2.421875q0.8125 -0.875 2.09375 -0.875q1.25 0 2.03125 0.84375q0.796875 0.84375 0.796875 2.390625q0 0.09375 0 0.28125l-4.640625 0q0.0625 1.03125 0.578125 1.578125q0.515625 0.53125 1.296875 0.53125q0.578125 0 0.984375 -0.296875q0.421875 -0.3125 0.65625 -0.96875zm-3.453125 -1.703125l3.46875 0q-0.0625 -0.796875 -0.390625 -1.1875q-0.515625 -0.609375 -1.3125 -0.609375q-0.734375 0 -1.234375 0.484375q-0.484375 0.484375 -0.53125 1.3125zm5.861328 3.703125l0 -6.21875l0.953125 0l0 0.9375q0.359375 -0.65625 0.65625 -0.859375q0.3125 -0.21875 0.6875 -0.21875q0.53125 0 1.078125 0.328125l-0.359375 0.984375q-0.390625 -0.234375 -0.765625 -0.234375q-0.359375 0 -0.640625 0.21875q-0.265625 0.203125 -0.375 0.578125q-0.1875 0.5625 -0.1875 1.21875l0 3.265625l-1.046875 0zm3.5898438 -1.859375l1.03125 -0.15625q0.09375 0.625 0.484375 0.953125q0.40625 0.328125 1.140625 0.328125q0.71875 0 1.0625 -0.28125q0.359375 -0.296875 0.359375 -0.703125q0 -0.359375 -0.3125 -0.5625q-0.21875 -0.140625 -1.078125 -0.359375q-1.15625 -0.296875 -1.609375 -0.5q-0.4375 -0.21875 -0.671875 -0.59375q-0.234375 -0.375 -0.234375 -0.84375q0 -0.40625 0.1875 -0.765625q0.1875 -0.359375 0.515625 -0.59375q0.25 -0.171875 0.671875 -0.296875q0.421875 -0.125 0.921875 -0.125q0.71875 0 1.265625 0.21875q0.5625 0.203125 0.828125 0.5625q0.265625 0.359375 0.359375 0.953125l-1.03125 0.140625q-0.0625 -0.46875 -0.40625 -0.734375q-0.328125 -0.28125 -0.953125 -0.28125q-0.71875 0 -1.03125 0.25q-0.3125 0.234375 -0.3125 0.5625q0 0.203125 0.125 0.359375q0.140625 0.171875 0.40625 0.28125q0.15625 0.0625 0.9375 0.265625q1.125 0.3125 1.5625 0.5q0.4375 0.1875 0.6875 0.546875q0.25 0.359375 0.25 0.90625q0 0.53125 -0.3125 1.0q-0.296875 0.453125 -0.875 0.71875q-0.578125 0.25 -1.3125 0.25q-1.21875 0 -1.859375 -0.5q-0.625 -0.515625 -0.796875 -1.5zm13.818359 1.09375q-0.59375 0.5 -1.140625 0.703125q-0.53125 0.203125 -1.15625 0.203125q-1.03125 0 -1.578125 -0.5q-0.546875 -0.5 -0.546875 -1.28125q0 -0.453125 0.203125 -0.828125q0.203125 -0.390625 0.546875 -0.609375q0.34375 -0.234375 0.765625 -0.34375q0.296875 -0.09375 0.9375 -0.171875q1.265625 -0.140625 1.875 -0.359375q0 -0.21875 0 -0.265625q0 -0.65625 -0.296875 -0.921875q-0.40625 -0.34375 -1.203125 -0.34375q-0.734375 0 -1.09375 0.265625q-0.359375 0.25 -0.53125 0.90625l-1.03125 -0.140625q0.140625 -0.65625 0.46875 -1.0625q0.328125 -0.40625 0.9375 -0.625q0.609375 -0.21875 1.40625 -0.21875q0.796875 0 1.296875 0.1875q0.5 0.1875 0.734375 0.46875q0.234375 0.28125 0.328125 0.71875q0.046875 0.265625 0.046875 0.96875l0 1.40625q0 1.46875 0.0625 1.859375q0.078125 0.390625 0.28125 0.75l-1.109375 0q-0.15625 -0.328125 -0.203125 -0.765625zm-0.09375 -2.359375q-0.578125 0.234375 -1.71875 0.40625q-0.65625 0.09375 -0.921875 0.21875q-0.265625 0.109375 -0.421875 0.328125q-0.140625 0.21875 -0.140625 0.5q0 0.421875 0.3125 0.703125q0.328125 0.28125 0.9375 0.28125q0.609375 0 1.078125 -0.265625q0.484375 -0.265625 0.703125 -0.734375q0.171875 -0.359375 0.171875 -1.046875l0 -0.390625zm2.7050781 3.125l0 -6.21875l0.9375 0l0 0.875q0.6875 -1.015625 1.984375 -1.015625q0.5625 0 1.03125 0.203125q0.484375 0.203125 0.71875 0.53125q0.234375 0.328125 0.328125 0.765625q0.046875 0.296875 0.046875 1.03125l0 3.828125l-1.046875 0l0 -3.78125q0 -0.65625 -0.125 -0.96875q-0.125 -0.3125 -0.4375 -0.5q-0.3125 -0.203125 -0.734375 -0.203125q-0.671875 0 -1.171875 0.4375q-0.484375 0.421875 -0.484375 1.609375l0 3.40625l-1.046875 0zm10.705078 0l0 -0.78125q-0.59375 0.921875 -1.734375 0.921875q-0.75 0 -1.375 -0.40625q-0.625 -0.421875 -0.96875 -1.15625q-0.34375 -0.734375 -0.34375 -1.6875q0 -0.921875 0.3125 -1.6875q0.3125 -0.765625 0.9375 -1.15625q0.625 -0.40625 1.390625 -0.40625q0.5625 0 1.0 0.234375q0.4375 0.234375 0.71875 0.609375l0 -3.078125l1.046875 0l0 8.59375l-0.984375 0zm-3.328125 -3.109375q0 1.203125 0.5 1.796875q0.5 0.578125 1.1875 0.578125q0.6875 0 1.171875 -0.5625q0.484375 -0.5625 0.484375 -1.71875q0 -1.28125 -0.5 -1.875q-0.484375 -0.59375 -1.203125 -0.59375q-0.703125 0 -1.171875 0.578125q-0.46875 0.5625 -0.46875 1.796875zm8.9140625 0q0 -1.734375 0.953125 -2.5625q0.796875 -0.6875 1.953125 -0.6875q1.28125 0 2.09375 0.84375q0.828125 0.828125 0.828125 2.3125q0 1.203125 -0.359375 1.890625q-0.359375 0.6875 -1.0625 1.078125q-0.6875 0.375 -1.5 0.375q-1.296875 0 -2.109375 -0.828125q-0.796875 -0.84375 -0.796875 -2.421875zm1.078125 0q0 1.1875 0.515625 1.78125q0.53125 0.59375 1.3125 0.59375q0.796875 0 1.3125 -0.59375q0.515625 -0.59375 0.515625 -1.8125q0 -1.15625 -0.53125 -1.75q-0.515625 -0.59375 -1.296875 -0.59375q-0.78125 0 -1.3125 0.59375q-0.515625 0.578125 -0.515625 1.78125zm8.283203 2.171875l0.15625 0.921875q-0.453125 0.09375 -0.796875 0.09375q-0.578125 0 -0.890625 -0.171875q-0.3125 -0.1875 -0.453125 -0.484375q-0.125 -0.296875 -0.125 -1.25l0 -3.578125l-0.765625 0l0 -0.8125l0.765625 0l0 -1.546875l1.046875 -0.625l0 2.171875l1.0625 0l0 0.8125l-1.0625 0l0 3.640625q0 0.453125 0.046875 0.578125q0.0625 0.125 0.1875 0.203125q0.125 0.078125 0.359375 0.078125q0.1875 0 0.46875 -0.03125zm1.0371094 0.9375l0 -8.59375l1.046875 0l0 3.078125q0.734375 -0.84375 1.859375 -0.84375q0.703125 0 1.203125 0.28125q0.515625 0.265625 0.734375 0.75q0.21875 0.46875 0.21875 1.390625l0 3.9375l-1.046875 0l0 -3.9375q0 -0.796875 -0.34375 -1.15625q-0.34375 -0.359375 -0.96875 -0.359375q-0.46875 0 -0.890625 0.25q-0.40625 0.234375 -0.59375 0.65625q-0.171875 0.40625 -0.171875 1.140625l0 3.40625l-1.046875 0zm10.923828 -2.0l1.09375 0.125q-0.25 0.953125 -0.953125 1.484375q-0.703125 0.53125 -1.78125 0.53125q-1.359375 0 -2.171875 -0.84375q-0.796875 -0.84375 -0.796875 -2.359375q0 -1.5625 0.8125 -2.421875q0.8125 -0.875 2.09375 -0.875q1.25 0 2.03125 0.84375q0.796875 0.84375 0.796875 2.390625q0 0.09375 0 0.28125l-4.640625 0q0.0625 1.03125 0.578125 1.578125q0.515625 0.53125 1.296875 0.53125q0.578125 0 0.984375 -0.296875q0.421875 -0.3125 0.65625 -0.96875zm-3.453125 -1.703125l3.46875 0q-0.0625 -0.796875 -0.390625 -1.1875q-0.515625 -0.609375 -1.3125 -0.609375q-0.734375 0 -1.234375 0.484375q-0.484375 0.484375 -0.53125 1.3125zm5.861328 3.703125l0 -6.21875l0.953125 0l0 0.9375q0.359375 -0.65625 0.65625 -0.859375q0.3125 -0.21875 0.6875 -0.21875q0.53125 0 1.078125 0.328125l-0.359375 0.984375q-0.390625 -0.234375 -0.765625 -0.234375q-0.359375 0 -0.640625 0.21875q-0.265625 0.203125 -0.375 0.578125q-0.1875 0.5625 -0.1875 1.21875l0 3.265625l-1.046875 0z" fill-rule="nonzero"/><path fill="#000000" d="m506.0363 269.0528l0 -0.78125q-0.59375 0.921875 -1.734375 0.921875q-0.75 0 -1.375 -0.40625q-0.625 -0.421875 -0.96875 -1.15625q-0.34375 -0.734375 -0.34375 -1.6875q0 -0.921875 0.3125 -1.6875q0.3125 -0.765625 0.9375 -1.15625q0.625 -0.40625 1.390625 -0.40625q0.5625 0 1.0 0.234375q0.4375 0.234375 0.71875 0.609375l0 -3.078125l1.046875 0l0 8.59375l-0.984375 0zm-3.328125 -3.109375q0 1.203125 0.5 1.796875q0.5 0.578125 1.1875 0.578125q0.6875 0 1.171875 -0.5625q0.484375 -0.5625 0.484375 -1.71875q0 -1.28125 -0.5 -1.875q-0.484375 -0.59375 -1.203125 -0.59375q-0.703125 0 -1.171875 0.578125q-0.46875 0.5625 -0.46875 1.796875zm10.033234 2.34375q-0.59375 0.5 -1.1406555 0.703125q-0.53125 0.203125 -1.15625 0.203125q-1.03125 0 -1.578125 -0.5q-0.546875 -0.5 -0.546875 -1.28125q0 -0.453125 0.203125 -0.828125q0.203125 -0.390625 0.546875 -0.609375q0.34375 -0.234375 0.765625 -0.34375q0.296875 -0.09375 0.9375 -0.171875q1.2656555 -0.140625 1.8750305 -0.359375q0 -0.21875 0 -0.265625q0 -0.65625 -0.296875 -0.921875q-0.40628052 -0.34375 -1.2031555 -0.34375q-0.734375 0 -1.09375 0.265625q-0.359375 0.25 -0.53125 0.90625l-1.03125 -0.140625q0.140625 -0.65625 0.46875 -1.0625q0.328125 -0.40625 0.9375 -0.625q0.609375 -0.21875 1.40625 -0.21875q0.7969055 0 1.2969055 0.1875q0.5 0.1875 0.734375 0.46875q0.234375 0.28125 0.328125 0.71875q0.046875 0.265625 0.046875 0.96875l0 1.40625q0 1.46875 0.0625 1.859375q0.078125 0.390625 0.28125 0.75l-1.109375 0q-0.15625 -0.328125 -0.203125 -0.765625zm-0.09375 -2.359375q-0.578125 0.234375 -1.7187805 0.40625q-0.65625 0.09375 -0.921875 0.21875q-0.265625 0.109375 -0.421875 0.328125q-0.140625 0.21875 -0.140625 0.5q0 0.421875 0.3125 0.703125q0.328125 0.28125 0.9375 0.28125q0.609375 0 1.078125 -0.265625q0.48440552 -0.265625 0.7031555 -0.734375q0.171875 -0.359375 0.171875 -1.046875l0 -0.390625zm5.001953 2.1875l0.15625 0.921875q-0.453125 0.09375 -0.796875 0.09375q-0.578125 0 -0.890625 -0.171875q-0.3125 -0.1875 -0.453125 -0.484375q-0.125 -0.296875 -0.125 -1.25l0 -3.578125l-0.765625 0l0 -0.8125l0.765625 0l0 -1.546875l1.046875 -0.625l0 2.171875l1.0625 0l0 0.8125l-1.0625 0l0 3.640625q0 0.453125 0.046875 0.578125q0.0625 0.125 0.1875 0.203125q0.125 0.078125 0.359375 0.078125q0.1875 0 0.46875 -0.03125zm5.0996094 0.171875q-0.59375 0.5 -1.140625 0.703125q-0.53125 0.203125 -1.15625 0.203125q-1.03125 0 -1.578125 -0.5q-0.546875 -0.5 -0.546875 -1.28125q0 -0.453125 0.203125 -0.828125q0.203125 -0.390625 0.546875 -0.609375q0.34375 -0.234375 0.765625 -0.34375q0.296875 -0.09375 0.9375 -0.171875q1.265625 -0.140625 1.875 -0.359375q0 -0.21875 0 -0.265625q0 -0.65625 -0.296875 -0.921875q-0.40625 -0.34375 -1.203125 -0.34375q-0.734375 0 -1.09375 0.265625q-0.359375 0.25 -0.53125 0.90625l-1.03125 -0.140625q0.140625 -0.65625 0.46875 -1.0625q0.328125 -0.40625 0.9375 -0.625q0.609375 -0.21875 1.40625 -0.21875q0.796875 0 1.296875 0.1875q0.5 0.1875 0.734375 0.46875q0.234375 0.28125 0.328125 0.71875q0.046875 0.265625 0.046875 0.96875l0 1.40625q0 1.46875 0.0625 1.859375q0.078125 0.390625 0.28125 0.75l-1.109375 0q-0.15625 -0.328125 -0.203125 -0.765625zm-0.09375 -2.359375q-0.578125 0.234375 -1.71875 0.40625q-0.65625 0.09375 -0.921875 0.21875q-0.265625 0.109375 -0.421875 0.328125q-0.140625 0.21875 -0.140625 0.5q0 0.421875 0.3125 0.703125q0.328125 0.28125 0.9375 0.28125q0.609375 0 1.078125 -0.265625q0.484375 -0.265625 0.703125 -0.734375q0.171875 -0.359375 0.171875 -1.046875l0 -0.390625zm5.6171875 1.265625l1.03125 -0.15625q0.09375 0.625 0.484375 0.953125q0.40625 0.328125 1.140625 0.328125q0.71875 0 1.0625 -0.28125q0.359375 -0.296875 0.359375 -0.703125q0 -0.359375 -0.3125 -0.5625q-0.21875 -0.140625 -1.078125 -0.359375q-1.15625 -0.296875 -1.609375 -0.5q-0.4375 -0.21875 -0.671875 -0.59375q-0.234375 -0.375 -0.234375 -0.84375q0 -0.40625 0.1875 -0.765625q0.1875 -0.359375 0.515625 -0.59375q0.25 -0.171875 0.671875 -0.296875q0.421875 -0.125 0.921875 -0.125q0.71875 0 1.265625 0.21875q0.5625 0.203125 0.828125 0.5625q0.265625 0.359375 0.359375 0.953125l-1.03125 0.140625q-0.0625 -0.46875 -0.40625 -0.734375q-0.328125 -0.28125 -0.953125 -0.28125q-0.71875 0 -1.03125 0.25q-0.3125 0.234375 -0.3125 0.5625q0 0.203125 0.125 0.359375q0.140625 0.171875 0.40625 0.28125q0.15625 0.0625 0.9375 0.265625q1.125 0.3125 1.5625 0.5q0.4375 0.1875 0.6875 0.546875q0.25 0.359375 0.25 0.90625q0 0.53125 -0.3125 1.0q-0.296875 0.453125 -0.875 0.71875q-0.578125 0.25 -1.3125 0.25q-1.21875 0 -1.859375 -0.5q-0.625 -0.515625 -0.796875 -1.5zm6.03125 -1.25q0 -1.734375 0.953125 -2.5625q0.796875 -0.6875 1.953125 -0.6875q1.28125 0 2.09375 0.84375q0.828125 0.828125 0.828125 2.3125q0 1.203125 -0.359375 1.890625q-0.359375 0.6875 -1.0625 1.078125q-0.6875 0.375 -1.5 0.375q-1.296875 0 -2.109375 -0.828125q-0.796875 -0.84375 -0.796875 -2.421875zm1.078125 0q0 1.1875 0.515625 1.78125q0.53125 0.59375 1.3125 0.59375q0.796875 0 1.3125 -0.59375q0.515625 -0.59375 0.515625 -1.8125q0 -1.15625 -0.53125 -1.75q-0.515625 -0.59375 -1.296875 -0.59375q-0.78125 0 -1.3125 0.59375q-0.515625 0.578125 -0.515625 1.78125zm10.064453 3.109375l0 -0.921875q-0.734375 1.0625 -1.984375 1.0625q-0.546875 0 -1.03125 -0.203125q-0.46875 -0.21875 -0.703125 -0.53125q-0.234375 -0.328125 -0.328125 -0.796875q-0.0625 -0.296875 -0.0625 -0.984375l0 -3.84375l1.0625 0l0 3.453125q0 0.8125 0.0625 1.109375q0.09375 0.40625 0.40625 0.65625q0.328125 0.234375 0.8125 0.234375q0.46875 0 0.875 -0.234375q0.421875 -0.25 0.59375 -0.671875q0.1875 -0.421875 0.1875 -1.21875l0 -3.328125l1.046875 0l0 6.21875l-0.9375 0zm2.5800781 0l0 -6.21875l0.953125 0l0 0.9375q0.359375 -0.65625 0.65625 -0.859375q0.3125 -0.21875 0.6875 -0.21875q0.53125 0 1.078125 0.328125l-0.359375 0.984375q-0.390625 -0.234375 -0.765625 -0.234375q-0.359375 0 -0.640625 0.21875q-0.265625 0.203125 -0.375 0.578125q-0.1875 0.5625 -0.1875 1.21875l0 3.265625l-1.046875 0zm8.074219 -2.28125l1.03125 0.140625q-0.171875 1.0625 -0.875 1.671875q-0.703125 0.609375 -1.71875 0.609375q-1.28125 0 -2.0625 -0.828125q-0.765625 -0.84375 -0.765625 -2.40625q0 -1.0 0.328125 -1.75q0.34375 -0.765625 1.015625 -1.140625q0.6875 -0.375 1.5 -0.375q1.0 0 1.640625 0.515625q0.65625 0.5 0.84375 1.453125l-1.03125 0.15625q-0.140625 -0.625 -0.515625 -0.9375q-0.375 -0.328125 -0.90625 -0.328125q-0.796875 0 -1.296875 0.578125q-0.5 0.5625 -0.5 1.796875q0 1.265625 0.484375 1.828125q0.484375 0.5625 1.25 0.5625q0.625 0 1.03125 -0.375q0.421875 -0.375 0.546875 -1.171875zm6.1875 0.28125l1.09375 0.125q-0.25 0.953125 -0.953125 1.484375q-0.703125 0.53125 -1.78125 0.53125q-1.359375 0 -2.171875 -0.84375q-0.796875 -0.84375 -0.796875 -2.359375q0 -1.5625 0.8125 -2.421875q0.8125 -0.875 2.09375 -0.875q1.25 0 2.03125 0.84375q0.796875 0.84375 0.796875 2.390625q0 0.09375 0 0.28125l-4.640625 0q0.0625 1.03125 0.578125 1.578125q0.515625 0.53125 1.296875 0.53125q0.578125 0 0.984375 -0.296875q0.421875 -0.3125 0.65625 -0.96875zm-3.453125 -1.703125l3.46875 0q-0.0625 -0.796875 -0.390625 -1.1875q-0.515625 -0.609375 -1.3125 -0.609375q-0.734375 0 -1.234375 0.484375q-0.484375 0.484375 -0.53125 1.3125zm5.455078 1.84375l1.03125 -0.15625q0.09375 0.625 0.484375 0.953125q0.40625 0.328125 1.140625 0.328125q0.71875 0 1.0625 -0.28125q0.359375 -0.296875 0.359375 -0.703125q0 -0.359375 -0.3125 -0.5625q-0.21875 -0.140625 -1.078125 -0.359375q-1.15625 -0.296875 -1.609375 -0.5q-0.4375 -0.21875 -0.671875 -0.59375q-0.234375 -0.375 -0.234375 -0.84375q0 -0.40625 0.1875 -0.765625q0.1875 -0.359375 0.515625 -0.59375q0.25 -0.171875 0.671875 -0.296875q0.421875 -0.125 0.921875 -0.125q0.71875 0 1.265625 0.21875q0.5625 0.203125 0.828125 0.5625q0.265625 0.359375 0.359375 0.953125l-1.03125 0.140625q-0.0625 -0.46875 -0.40625 -0.734375q-0.328125 -0.28125 -0.953125 -0.28125q-0.71875 0 -1.03125 0.25q-0.3125 0.234375 -0.3125 0.5625q0 0.203125 0.125 0.359375q0.140625 0.171875 0.40625 0.28125q0.15625 0.0625 0.9375 0.265625q1.125 0.3125 1.5625 0.5q0.4375 0.1875 0.6875 0.546875q0.25 0.359375 0.25 0.90625q0 0.53125 -0.3125 1.0q-0.296875 0.453125 -0.875 0.71875q-0.578125 0.25 -1.3125 0.25q-1.21875 0 -1.859375 -0.5q-0.625 -0.515625 -0.796875 -1.5z" fill-rule="nonzero"/><path fill="#fce5cd" d="m34.61155 137.80315c0 3.6181183 12.190544 6.551178 27.228344 6.551178c15.0378 0 27.228352 -2.9330597 27.228352 -6.551178l0 39.307083c0 3.6181183 -12.190552 6.551193 -27.228352 6.551193c-15.0378 0 -27.228344 -2.933075 -27.228344 -6.551193z" fill-rule="evenodd"/><path fill="#fdefe1" d="m34.61155 137.80315c0 -3.6181183 12.190544 -6.551178 27.228344 -6.551178c15.0378 0 27.228352 2.9330597 27.228352 6.551178l0 0c0 3.6181183 -12.190552 6.551178 -27.228352 6.551178c-15.0378 0 -27.228344 -2.9330597 -27.228344 -6.551178z" fill-rule="evenodd"/><path fill="#000000" fill-opacity="0.0" d="m89.068245 137.80315l0 0c0 3.6181183 -12.190552 6.551178 -27.228352 6.551178c-15.0378 0 -27.228344 -2.9330597 -27.228344 -6.551178c0 -3.6181183 12.190544 -6.551178 27.228344 -6.551178c15.0378 0 27.228352 2.9330597 27.228352 6.551178l0 39.307083c0 3.6181183 -12.190552 6.551193 -27.228352 6.551193c-15.0378 0 -27.228344 -2.933075 -27.228344 -6.551193l0 -39.307083" fill-rule="evenodd"/><path stroke="#000000" stroke-width="1.0" stroke-linejoin="round" stroke-linecap="butt" d="m89.068245 137.80315l0 0c0 3.6181183 -12.190552 6.551178 -27.228352 6.551178c-15.0378 0 -27.228344 -2.9330597 -27.228344 -6.551178c0 -3.6181183 12.190544 -6.551178 27.228344 -6.551178c15.0378 0 27.228352 2.9330597 27.228352 6.551178l0 39.307083c0 3.6181183 -12.190552 6.551193 -27.228352 6.551193c-15.0378 0 -27.228344 -2.933075 -27.228344 -6.551193l0 -39.307083" fill-rule="evenodd"/><path fill="#000000" d="m50.08794 158.25229l0 -8.59375l2.96875 0q1.0 0 1.53125 0.125q0.734375 0.171875 1.25 0.609375q0.6875 0.578125 1.015625 1.484375q0.34375 0.890625 0.34375 2.03125q0 0.984375 -0.234375 1.734375q-0.21875 0.75 -0.578125 1.25q-0.359375 0.5 -0.796875 0.78125q-0.421875 0.28125 -1.015625 0.4375q-0.59375 0.140625 -1.375 0.140625l-3.109375 0zm1.140625 -1.015625l1.828125 0q0.859375 0 1.34375 -0.15625q0.484375 -0.15625 0.765625 -0.453125q0.40625 -0.390625 0.625 -1.078125q0.234375 -0.6875 0.234375 -1.65625q0 -1.34375 -0.453125 -2.0625q-0.4375 -0.734375 -1.0625 -0.984375q-0.46875 -0.171875 -1.46875 -0.171875l-1.8125 0l0 6.5625zm11.462891 0.25q-0.59375 0.5 -1.140625 0.703125q-0.53125 0.203125 -1.15625 0.203125q-1.03125 0 -1.578125 -0.5q-0.546875 -0.5 -0.546875 -1.28125q0 -0.453125 0.203125 -0.828125q0.203125 -0.390625 0.546875 -0.609375q0.34375 -0.234375 0.765625 -0.34375q0.296875 -0.09375 0.9375 -0.171875q1.265625 -0.140625 1.875 -0.359375q0 -0.21875 0 -0.265625q0 -0.65625 -0.296875 -0.921875q-0.40625 -0.34375 -1.203125 -0.34375q-0.734375 0 -1.09375 0.265625q-0.359375 0.25 -0.53125 0.90625l-1.03125 -0.140625q0.140625 -0.65625 0.46875 -1.0625q0.328125 -0.40625 0.9375 -0.625q0.609375 -0.21875 1.40625 -0.21875q0.796875 0 1.296875 0.1875q0.5 0.1875 0.734375 0.46875q0.234375 0.28125 0.328125 0.71875q0.046875 0.265625 0.046875 0.96875l0 1.40625q0 1.46875 0.0625 1.859375q0.078125 0.390625 0.2812538 0.75l-1.1093788 0q-0.15625 -0.328125 -0.203125 -0.765625zm-0.09375 -2.359375q-0.578125 0.234375 -1.71875 0.40625q-0.65625 0.09375 -0.921875 0.21875q-0.265625 0.109375 -0.421875 0.328125q-0.140625 0.21875 -0.140625 0.5q0 0.421875 0.3125 0.703125q0.328125 0.28125 0.9375 0.28125q0.609375 0 1.078125 -0.265625q0.484375 -0.265625 0.703125 -0.734375q0.171875 -0.359375 0.171875 -1.046875l0 -0.390625zm5.001957 2.1875l0.15625 0.921875q-0.453125 0.09375 -0.796875 0.09375q-0.578125 0 -0.890625 -0.171875q-0.3125 -0.1875 -0.453125 -0.484375q-0.125 -0.296875 -0.125 -1.25l0 -3.578125l-0.765625 0l0 -0.8125l0.765625 0l0 -1.546875l1.046875 -0.625l0 2.171875l1.0625 0l0 0.8125l-1.0625 0l0 3.640625q0 0.453125 0.046875 0.578125q0.0625 0.125 0.1875 0.203125q0.125 0.078125 0.359375 0.078125q0.1875 0 0.46875 -0.03125zm5.0996094 0.171875q-0.59375 0.5 -1.140625 0.703125q-0.53125 0.203125 -1.15625 0.203125q-1.03125 0 -1.578125 -0.5q-0.546875 -0.5 -0.546875 -1.28125q0 -0.453125 0.203125 -0.828125q0.203125 -0.390625 0.546875 -0.609375q0.34375 -0.234375 0.765625 -0.34375q0.296875 -0.09375 0.9375 -0.171875q1.265625 -0.140625 1.875 -0.359375q0 -0.21875 0 -0.265625q0 -0.65625 -0.296875 -0.921875q-0.40625 -0.34375 -1.203125 -0.34375q-0.734375 0 -1.09375 0.265625q-0.359375 0.25 -0.53125 0.90625l-1.03125 -0.140625q0.140625 -0.65625 0.46875 -1.0625q0.328125 -0.40625 0.9375 -0.625q0.609375 -0.21875 1.40625 -0.21875q0.796875 0 1.296875 0.1875q0.5 0.1875 0.734375 0.46875q0.234375 0.28125 0.328125 0.71875q0.046875 0.265625 0.046875 0.96875l0 1.40625q0 1.46875 0.0625 1.859375q0.078125 0.390625 0.28125 0.75l-1.109375 0q-0.15625 -0.328125 -0.203125 -0.765625zm-0.09375 -2.359375q-0.578125 0.234375 -1.71875 0.40625q-0.65625 0.09375 -0.921875 0.21875q-0.265625 0.109375 -0.421875 0.328125q-0.140625 0.21875 -0.140625 0.5q0 0.421875 0.3125 0.703125q0.328125 0.28125 0.9375 0.28125q0.609375 0 1.078125 -0.265625q0.484375 -0.265625 0.703125 -0.734375q0.171875 -0.359375 0.171875 -1.046875l0 -0.390625z" fill-rule="nonzero"/><path fill="#000000" d="m46.129932 165.09604l0 1.234375l-1.140625 0l0 -0.96875q0 -0.78125 0.1875 -1.140625q0.25 -0.46875 0.78125 -0.703125l0.265625 0.40625q-0.328125 0.140625 -0.484375 0.40625q-0.15625 0.265625 -0.171875 0.765625l0.5625 0zm1.8125 0l0 1.234375l-1.140625 0l0 -0.96875q0 -0.78125 0.1875 -1.140625q0.25 -0.46875 0.78125 -0.703125l0.265625 0.40625q-0.328125 0.140625 -0.484375 0.40625q-0.140625 0.265625 -0.15625 0.765625l0.546875 0zm3.6523438 6.21875l0.15625 0.921875q-0.453125 0.09375 -0.796875 0.09375q-0.578125 0 -0.890625 -0.171875q-0.3125 -0.1875 -0.453125 -0.484375q-0.125 -0.296875 -0.125 -1.25l0 -3.578125l-0.765625 0l0 -0.8125l0.765625 0l0 -1.546875l1.046875 -0.625l0 2.171875l1.0625 0l0 0.8125l-1.0625 0l0 3.640625q0 0.453125 0.046875 0.578125q0.0625 0.125 0.1875 0.203125q0.125 0.078125 0.359375 0.078125q0.1875 0 0.46875 -0.03125zm1.0214844 0.9375l0 -6.21875l0.953125 0l0 0.9375q0.359375 -0.65625 0.65625 -0.859375q0.3125 -0.21875 0.6875 -0.21875q0.53125 0 1.078125 0.328125l-0.359375 0.984375q-0.390625 -0.234375 -0.765625 -0.234375q-0.359375 0 -0.640625 0.21875q-0.265625 0.203125 -0.375 0.578125q-0.1875 0.5625 -0.1875 1.21875l0 3.265625l-1.046875 0zm8.261719 -2.0l1.09375 0.125q-0.25 0.953125 -0.953125 1.484375q-0.703125 0.53125 -1.78125 0.53125q-1.359375 0 -2.171875 -0.84375q-0.796875 -0.84375 -0.796875 -2.359375q0 -1.5625 0.8125 -2.421875q0.8125 -0.875 2.09375 -0.875q1.25 0 2.03125 0.84375q0.796875 0.84375 0.796875 2.390625q0 0.09375 0 0.28125l-4.640625 0q0.0625 1.03125 0.578125 1.578125q0.515625 0.53125 1.296875 0.53125q0.578125 0 0.984375 -0.296875q0.421875 -0.3125 0.65625 -0.96875zm-3.453125 -1.703125l3.46875 0q-0.0625 -0.796875 -0.390625 -1.1875q-0.515625 -0.609375 -1.3125 -0.609375q-0.734375 0 -1.234375 0.484375q-0.484375 0.484375 -0.53125 1.3125zm10.126957 1.703125l1.09375 0.125q-0.25 0.953125 -0.953125 1.484375q-0.703125 0.53125 -1.78125 0.53125q-1.359375 0 -2.1718788 -0.84375q-0.796875 -0.84375 -0.796875 -2.359375q0 -1.5625 0.8125 -2.421875q0.8125038 -0.875 2.0937538 -0.875q1.25 0 2.03125 0.84375q0.796875 0.84375 0.796875 2.390625q0 0.09375 0 0.28125l-4.640625 0q0.0625 1.03125 0.578125 1.578125q0.515625 0.53125 1.296875 0.53125q0.578125 0 0.984375 -0.296875q0.421875 -0.3125 0.65625 -0.96875zm-3.453125 -1.703125l3.46875 0q-0.0625 -0.796875 -0.390625 -1.1875q-0.515625 -0.609375 -1.3125 -0.609375q-0.734375 0 -1.234375 0.484375q-0.484375 0.484375 -0.53125 1.3125zm5.455078 1.84375l1.03125 -0.15625q0.09375 0.625 0.484375 0.953125q0.40625 0.328125 1.140625 0.328125q0.71875 0 1.0625 -0.28125q0.359375 -0.296875 0.359375 -0.703125q0 -0.359375 -0.3125 -0.5625q-0.21875 -0.140625 -1.078125 -0.359375q-1.15625 -0.296875 -1.609375 -0.5q-0.4375 -0.21875 -0.671875 -0.59375q-0.234375 -0.375 -0.234375 -0.84375q0 -0.40625 0.1875 -0.765625q0.1875 -0.359375 0.515625 -0.59375q0.25 -0.171875 0.671875 -0.296875q0.421875 -0.125 0.921875 -0.125q0.71875 0 1.265625 0.21875q0.5625 0.203125 0.828125 0.5625q0.265625 0.359375 0.359375 0.953125l-1.03125 0.140625q-0.0625 -0.46875 -0.40625 -0.734375q-0.328125 -0.28125 -0.953125 -0.28125q-0.71875 0 -1.03125 0.25q-0.3125 0.234375 -0.3125 0.5625q0 0.203125 0.125 0.359375q0.140625 0.171875 0.40625 0.28125q0.15625 0.0625 0.9375 0.265625q1.125 0.3125 1.5625 0.5q0.4375 0.1875 0.6875 0.546875q0.25 0.359375 0.25 0.90625q0 0.53125 -0.3125 1.0q-0.296875 0.453125 -0.875 0.71875q-0.578125 0.25 -1.3125 0.25q-1.21875 0 -1.859375 -0.5q-0.625 -0.515625 -0.796875 -1.5zm6.140625 -5.59375l0 -1.21875l1.125 0l0 0.953125q0 0.796875 -0.1875 1.140625q-0.25 0.46875 -0.78125 0.71875l-0.25 -0.421875q0.3125 -0.125 0.46875 -0.40625q0.15625 -0.28125 0.171875 -0.765625l-0.546875 0zm1.8125 0l0 -1.21875l1.125 0l0 0.953125q0 0.796875 -0.171875 1.140625q-0.25 0.46875 -0.796875 0.71875l-0.25 -0.421875q0.3125 -0.125 0.46875 -0.40625q0.15625 -0.28125 0.171875 -0.765625l-0.546875 0z" fill-rule="nonzero"/><path fill="#fce5cd" d="m41.608925 151.0105c0 3.6181183 12.190544 6.551178 27.228348 6.551178c15.037796 0 27.228348 -2.9330597 27.228348 -6.551178l0 39.307083c0 3.6181183 -12.190552 6.551178 -27.228348 6.551178c-15.037804 0 -27.228348 -2.9330597 -27.228348 -6.551178z" fill-rule="evenodd"/><path fill="#fdefe1" d="m41.608925 151.0105c0 -3.6181183 12.190544 -6.551178 27.228348 -6.551178c15.037796 0 27.228348 2.9330597 27.228348 6.551178l0 0c0 3.6181183 -12.190552 6.551178 -27.228348 6.551178c-15.037804 0 -27.228348 -2.9330597 -27.228348 -6.551178z" fill-rule="evenodd"/><path fill="#000000" fill-opacity="0.0" d="m96.06562 151.0105l0 0c0 3.6181183 -12.190552 6.551178 -27.228348 6.551178c-15.037804 0 -27.228348 -2.9330597 -27.228348 -6.551178c0 -3.6181183 12.190544 -6.551178 27.228348 -6.551178c15.037796 0 27.228348 2.9330597 27.228348 6.551178l0 39.307083c0 3.6181183 -12.190552 6.551178 -27.228348 6.551178c-15.037804 0 -27.228348 -2.9330597 -27.228348 -6.551178l0 -39.307083" fill-rule="evenodd"/><path stroke="#000000" stroke-width="1.0" stroke-linejoin="round" stroke-linecap="butt" d="m96.06562 151.0105l0 0c0 3.6181183 -12.190552 6.551178 -27.228348 6.551178c-15.037804 0 -27.228348 -2.9330597 -27.228348 -6.551178c0 -3.6181183 12.190544 -6.551178 27.228348 -6.551178c15.037796 0 27.228348 2.9330597 27.228348 6.551178l0 39.307083c0 3.6181183 -12.190552 6.551178 -27.228348 6.551178c-15.037804 0 -27.228348 -2.9330597 -27.228348 -6.551178l0 -39.307083" fill-rule="evenodd"/><path fill="#000000" d="m57.085316 171.45963l0 -8.59375l2.96875 0q1.0 0 1.53125 0.125q0.734375 0.171875 1.25 0.609375q0.6875 0.578125 1.015625 1.484375q0.3437538 0.890625 0.3437538 2.03125q0 0.984375 -0.23437881 1.734375q-0.21875 0.75 -0.578125 1.25q-0.359375 0.5 -0.796875 0.78125q-0.421875 0.28125 -1.015625 0.4375q-0.59375 0.140625 -1.375 0.140625l-3.109375 0zm1.140625 -1.015625l1.828125 0q0.859375 0 1.34375 -0.15625q0.484375 -0.15625 0.765625 -0.453125q0.40625 -0.390625 0.625 -1.078125q0.234375 -0.6875 0.234375 -1.65625q0 -1.34375 -0.453125 -2.0625q-0.4375 -0.734375 -1.0625 -0.984375q-0.46875 -0.171875 -1.46875 -0.171875l-1.8125 0l0 6.5625zm11.462894 0.25q-0.59375 0.5 -1.140625 0.703125q-0.53125 0.203125 -1.15625 0.203125q-1.03125 0 -1.578125 -0.5q-0.546875 -0.5 -0.546875 -1.28125q0 -0.453125 0.203125 -0.828125q0.203125 -0.390625 0.546875 -0.609375q0.34375 -0.234375 0.765625 -0.34375q0.296875 -0.09375 0.9375 -0.171875q1.265625 -0.140625 1.875 -0.359375q0 -0.21875 0 -0.265625q0 -0.65625 -0.296875 -0.921875q-0.40625 -0.34375 -1.203125 -0.34375q-0.734375 0 -1.09375 0.265625q-0.359375 0.25 -0.53125 0.90625l-1.03125 -0.140625q0.140625 -0.65625 0.46875 -1.0625q0.328125 -0.40625 0.9375 -0.625q0.609375 -0.21875 1.40625 -0.21875q0.796875 0 1.296875 0.1875q0.5 0.1875 0.734375 0.46875q0.234375 0.28125 0.328125 0.71875q0.046875 0.265625 0.046875 0.96875l0 1.40625q0 1.46875 0.0625 1.859375q0.078125 0.390625 0.28125 0.75l-1.109375 0q-0.15625 -0.328125 -0.203125 -0.765625zm-0.09375 -2.359375q-0.578125 0.234375 -1.71875 0.40625q-0.65625 0.09375 -0.921875 0.21875q-0.265625 0.109375 -0.421875 0.328125q-0.140625 0.21875 -0.140625 0.5q0 0.421875 0.3125 0.703125q0.328125 0.28125 0.9375 0.28125q0.609375 0 1.078125 -0.265625q0.484375 -0.265625 0.703125 -0.734375q0.171875 -0.359375 0.171875 -1.046875l0 -0.390625zm5.001953 2.1875l0.15625 0.921875q-0.453125 0.09375 -0.796875 0.09375q-0.578125 0 -0.890625 -0.171875q-0.3125 -0.1875 -0.453125 -0.484375q-0.125 -0.296875 -0.125 -1.25l0 -3.578125l-0.765625 0l0 -0.8125l0.765625 0l0 -1.546875l1.046875 -0.625l0 2.171875l1.0625 0l0 0.8125l-1.0625 0l0 3.640625q0 0.453125 0.046875 0.578125q0.0625 0.125 0.1875 0.203125q0.125 0.078125 0.359375 0.078125q0.1875 0 0.46875 -0.03125zm5.0996094 0.171875q-0.59375 0.5 -1.140625 0.703125q-0.53125 0.203125 -1.15625 0.203125q-1.03125 0 -1.578125 -0.5q-0.546875 -0.5 -0.546875 -1.28125q0 -0.453125 0.203125 -0.828125q0.203125 -0.390625 0.546875 -0.609375q0.34375 -0.234375 0.765625 -0.34375q0.296875 -0.09375 0.9375 -0.171875q1.265625 -0.140625 1.875 -0.359375q0 -0.21875 0 -0.265625q0 -0.65625 -0.296875 -0.921875q-0.40625 -0.34375 -1.203125 -0.34375q-0.734375 0 -1.09375 0.265625q-0.359375 0.25 -0.53125 0.90625l-1.03125 -0.140625q0.140625 -0.65625 0.46875 -1.0625q0.328125 -0.40625 0.9375 -0.625q0.609375 -0.21875 1.40625 -0.21875q0.796875 0 1.296875 0.1875q0.5 0.1875 0.734375 0.46875q0.234375 0.28125 0.328125 0.71875q0.046875 0.265625 0.046875 0.96875l0 1.40625q0 1.46875 0.0625 1.859375q0.078125 0.390625 0.28125 0.75l-1.109375 0q-0.15625 -0.328125 -0.203125 -0.765625zm-0.09375 -2.359375q-0.578125 0.234375 -1.71875 0.40625q-0.65625 0.09375 -0.921875 0.21875q-0.265625 0.109375 -0.421875 0.328125q-0.140625 0.21875 -0.140625 0.5q0 0.421875 0.3125 0.703125q0.328125 0.28125 0.9375 0.28125q0.609375 0 1.078125 -0.265625q0.484375 -0.265625 0.703125 -0.734375q0.171875 -0.359375 0.171875 -1.046875l0 -0.390625z" fill-rule="nonzero"/><path fill="#000000" d="m53.127308 178.30338l0 1.234375l-1.140625 0l0 -0.96875q0 -0.78125 0.1875 -1.140625q0.25 -0.46875 0.78125 -0.703125l0.265625 0.40625q-0.328125 0.140625 -0.484375 0.40625q-0.15625 0.265625 -0.171875 0.765625l0.5625 0zm1.8125 0l0 1.234375l-1.140625 0l0 -0.96875q0 -0.78125 0.1875 -1.140625q0.25 -0.46875 0.78125 -0.703125l0.265625 0.40625q-0.328125 0.140625 -0.484375 0.40625q-0.140625 0.265625 -0.15625 0.765625l0.546875 0zm3.6523438 6.21875l0.15625 0.921875q-0.453125 0.09375 -0.796875 0.09375q-0.578125 0 -0.890625 -0.171875q-0.3125 -0.1875 -0.453125 -0.484375q-0.125 -0.296875 -0.125 -1.25l0 -3.578125l-0.765625 0l0 -0.8125l0.765625 0l0 -1.546875l1.046875 -0.625l0 2.171875l1.0625 0l0 0.8125l-1.0625 0l0 3.640625q0 0.453125 0.046875 0.578125q0.0625 0.125 0.1875 0.203125q0.125 0.078125 0.359375 0.078125q0.1875 0 0.46875 -0.03125zm1.0214844 0.9375l0 -6.21875l0.953125 0l0 0.9375q0.359375 -0.65625 0.65625 -0.859375q0.3125 -0.21875 0.6875 -0.21875q0.53125 0 1.078125 0.328125l-0.359375 0.984375q-0.390625 -0.234375 -0.765625 -0.234375q-0.359375 0 -0.640625 0.21875q-0.265625 0.203125 -0.375 0.578125q-0.1875 0.5625 -0.1875 1.21875l0 3.265625l-1.046875 0zm8.261723 -2.0l1.09375 0.125q-0.25 0.953125 -0.953125 1.484375q-0.703125 0.53125 -1.78125 0.53125q-1.359375 0 -2.171875 -0.84375q-0.7968788 -0.84375 -0.7968788 -2.359375q0 -1.5625 0.8125038 -2.421875q0.8125 -0.875 2.09375 -0.875q1.25 0 2.03125 0.84375q0.796875 0.84375 0.796875 2.390625q0 0.09375 0 0.28125l-4.640625 0q0.0625 1.03125 0.578125 1.578125q0.515625 0.53125 1.296875 0.53125q0.578125 0 0.984375 -0.296875q0.421875 -0.3125 0.65625 -0.96875zm-3.453125 -1.703125l3.46875 0q-0.0625 -0.796875 -0.390625 -1.1875q-0.515625 -0.609375 -1.3125 -0.609375q-0.734375 0 -1.234375 0.484375q-0.484375 0.484375 -0.53125 1.3125zm10.126953 1.703125l1.09375 0.125q-0.25 0.953125 -0.953125 1.484375q-0.703125 0.53125 -1.78125 0.53125q-1.359375 0 -2.171875 -0.84375q-0.796875 -0.84375 -0.796875 -2.359375q0 -1.5625 0.8125 -2.421875q0.8125 -0.875 2.09375 -0.875q1.25 0 2.03125 0.84375q0.796875 0.84375 0.796875 2.390625q0 0.09375 0 0.28125l-4.640625 0q0.0625 1.03125 0.578125 1.578125q0.515625 0.53125 1.296875 0.53125q0.578125 0 0.984375 -0.296875q0.421875 -0.3125 0.65625 -0.96875zm-3.453125 -1.703125l3.46875 0q-0.0625 -0.796875 -0.390625 -1.1875q-0.515625 -0.609375 -1.3125 -0.609375q-0.734375 0 -1.234375 0.484375q-0.484375 0.484375 -0.53125 1.3125zm5.455078 1.84375l1.03125 -0.15625q0.09375 0.625 0.484375 0.953125q0.40625 0.328125 1.140625 0.328125q0.71875 0 1.0625 -0.28125q0.359375 -0.296875 0.359375 -0.703125q0 -0.359375 -0.3125 -0.5625q-0.21875 -0.140625 -1.078125 -0.359375q-1.15625 -0.296875 -1.609375 -0.5q-0.4375 -0.21875 -0.671875 -0.59375q-0.234375 -0.375 -0.234375 -0.84375q0 -0.40625 0.1875 -0.765625q0.1875 -0.359375 0.515625 -0.59375q0.25 -0.171875 0.671875 -0.296875q0.421875 -0.125 0.921875 -0.125q0.71875 0 1.265625 0.21875q0.5625 0.203125 0.828125 0.5625q0.265625 0.359375 0.359375 0.953125l-1.03125 0.140625q-0.0625 -0.46875 -0.40625 -0.734375q-0.328125 -0.28125 -0.953125 -0.28125q-0.71875 0 -1.03125 0.25q-0.3125 0.234375 -0.3125 0.5625q0 0.203125 0.125 0.359375q0.140625 0.171875 0.40625 0.28125q0.15625 0.0625 0.9375 0.265625q1.125 0.3125 1.5625 0.5q0.4375 0.1875 0.6875 0.546875q0.25 0.359375 0.25 0.90625q0 0.53125 -0.3125 1.0q-0.296875 0.453125 -0.875 0.71875q-0.578125 0.25 -1.3125 0.25q-1.21875 0 -1.859375 -0.5q-0.625 -0.515625 -0.796875 -1.5zm6.140625 -5.59375l0 -1.21875l1.125 0l0 0.953125q0 0.796875 -0.1875 1.140625q-0.25 0.46875 -0.78125 0.71875l-0.25 -0.421875q0.3125 -0.125 0.46875 -0.40625q0.15625 -0.28125 0.171875 -0.765625l-0.546875 0zm1.8125 0l0 -1.21875l1.125 0l0 0.953125q0 0.796875 -0.171875 1.140625q-0.25 0.46875 -0.796875 0.71875l-0.25 -0.421875q0.3125 -0.125 0.46875 -0.40625q0.15625 -0.28125 0.171875 -0.765625l-0.546875 0z" fill-rule="nonzero"/><path fill="#fce5cd" d="m49.73491 163.45145c0 3.6181183 12.190544 6.551178 27.228348 6.551178c15.037796 0 27.228348 -2.9330597 27.228348 -6.551178l0 39.307083c0 3.6181183 -12.190552 6.551178 -27.228348 6.551178c-15.037804 0 -27.228348 -2.9330597 -27.228348 -6.551178z" fill-rule="evenodd"/><path fill="#fdefe1" d="m49.73491 163.45145c0 -3.6181183 12.190544 -6.551178 27.228348 -6.551178c15.037796 0 27.228348 2.9330597 27.228348 6.551178l0 0c0 3.6181183 -12.190552 6.551178 -27.228348 6.551178c-15.037804 0 -27.228348 -2.9330597 -27.228348 -6.551178z" fill-rule="evenodd"/><path fill="#000000" fill-opacity="0.0" d="m104.191605 163.45145l0 0c0 3.6181183 -12.190552 6.551178 -27.228348 6.551178c-15.037804 0 -27.228348 -2.9330597 -27.228348 -6.551178c0 -3.6181183 12.190544 -6.551178 27.228348 -6.551178c15.037796 0 27.228348 2.9330597 27.228348 6.551178l0 39.307083c0 3.6181183 -12.190552 6.551178 -27.228348 6.551178c-15.037804 0 -27.228348 -2.9330597 -27.228348 -6.551178l0 -39.307083" fill-rule="evenodd"/><path stroke="#000000" stroke-width="1.0" stroke-linejoin="round" stroke-linecap="butt" d="m104.191605 163.45145l0 0c0 3.6181183 -12.190552 6.551178 -27.228348 6.551178c-15.037804 0 -27.228348 -2.9330597 -27.228348 -6.551178c0 -3.6181183 12.190544 -6.551178 27.228348 -6.551178c15.037796 0 27.228348 2.9330597 27.228348 6.551178l0 39.307083c0 3.6181183 -12.190552 6.551178 -27.228348 6.551178c-15.037804 0 -27.228348 -2.9330597 -27.228348 -6.551178l0 -39.307083" fill-rule="evenodd"/><path fill="#000000" d="m65.2113 183.90057l0 -8.59375l2.96875 0q1.0 0 1.53125 0.125q0.734375 0.171875 1.25 0.609375q0.6875 0.578125 1.015625 1.484375q0.34375 0.890625 0.34375 2.03125q0 0.984375 -0.234375 1.734375q-0.21875 0.75 -0.578125 1.25q-0.359375 0.5 -0.796875 0.78125q-0.421875 0.28125 -1.015625 0.4375q-0.59375 0.140625 -1.375 0.140625l-3.109375 0zm1.140625 -1.015625l1.828125 0q0.859375 0 1.34375 -0.15625q0.484375 -0.15625 0.765625 -0.453125q0.40625 -0.390625 0.625 -1.078125q0.234375 -0.6875 0.234375 -1.65625q0 -1.34375 -0.453125 -2.0625q-0.4375 -0.734375 -1.0625 -0.984375q-0.46875 -0.171875 -1.46875 -0.171875l-1.8125 0l0 6.5625zm11.462891 0.25q-0.59375 0.5 -1.140625 0.703125q-0.53125 0.203125 -1.15625 0.203125q-1.03125 0 -1.578125 -0.5q-0.546875 -0.5 -0.546875 -1.28125q0 -0.453125 0.203125 -0.828125q0.203125 -0.390625 0.546875 -0.609375q0.34375 -0.234375 0.765625 -0.34375q0.296875 -0.09375 0.9375 -0.171875q1.265625 -0.140625 1.875 -0.359375q0 -0.21875 0 -0.265625q0 -0.65625 -0.296875 -0.921875q-0.40625 -0.34375 -1.203125 -0.34375q-0.734375 0 -1.09375 0.265625q-0.359375 0.25 -0.53125 0.90625l-1.03125 -0.140625q0.140625 -0.65625 0.46875 -1.0625q0.328125 -0.40625 0.9375 -0.625q0.609375 -0.21875 1.40625 -0.21875q0.796875 0 1.296875 0.1875q0.5 0.1875 0.734375 0.46875q0.234375 0.28125 0.328125 0.71875q0.046875 0.265625 0.046875 0.96875l0 1.40625q0 1.46875 0.0625 1.859375q0.078125 0.390625 0.28125 0.75l-1.109375 0q-0.15625 -0.328125 -0.203125 -0.765625zm-0.09375 -2.359375q-0.578125 0.234375 -1.71875 0.40625q-0.65625 0.09375 -0.921875 0.21875q-0.265625 0.109375 -0.421875 0.328125q-0.140625 0.21875 -0.140625 0.5q0 0.421875 0.3125 0.703125q0.328125 0.28125 0.9375 0.28125q0.609375 0 1.078125 -0.265625q0.484375 -0.265625 0.703125 -0.734375q0.171875 -0.359375 0.171875 -1.046875l0 -0.390625zm5.001953 2.1875l0.15625 0.921875q-0.453125 0.09375 -0.796875 0.09375q-0.578125 0 -0.890625 -0.171875q-0.3125 -0.1875 -0.453125 -0.484375q-0.125 -0.296875 -0.125 -1.25l0 -3.578125l-0.765625 0l0 -0.8125l0.765625 0l0 -1.546875l1.046875 -0.625l0 2.171875l1.0625 0l0 0.8125l-1.0625 0l0 3.640625q0 0.453125 0.046875 0.578125q0.0625 0.125 0.1875 0.203125q0.125 0.078125 0.359375 0.078125q0.1875 0 0.46875 -0.03125zm5.0996094 0.171875q-0.59375 0.5 -1.140625 0.703125q-0.53125 0.203125 -1.15625 0.203125q-1.03125 0 -1.578125 -0.5q-0.546875 -0.5 -0.546875 -1.28125q0 -0.453125 0.203125 -0.828125q0.203125 -0.390625 0.546875 -0.609375q0.34375 -0.234375 0.765625 -0.34375q0.296875 -0.09375 0.9375 -0.171875q1.265625 -0.140625 1.875 -0.359375q0 -0.21875 0 -0.265625q0 -0.65625 -0.296875 -0.921875q-0.40625 -0.34375 -1.203125 -0.34375q-0.734375 0 -1.09375 0.265625q-0.359375 0.25 -0.53125 0.90625l-1.03125 -0.140625q0.140625 -0.65625 0.46875 -1.0625q0.328125 -0.40625 0.9375 -0.625q0.609375 -0.21875 1.40625 -0.21875q0.796875 0 1.296875 0.1875q0.5 0.1875 0.734375 0.46875q0.234375 0.28125 0.328125 0.71875q0.046875 0.265625 0.046875 0.96875l0 1.40625q0 1.46875 0.0625 1.859375q0.078125 0.390625 0.28125 0.75l-1.109375 0q-0.15625 -0.328125 -0.203125 -0.765625zm-0.09375 -2.359375q-0.578125 0.234375 -1.71875 0.40625q-0.65625 0.09375 -0.921875 0.21875q-0.265625 0.109375 -0.421875 0.328125q-0.140625 0.21875 -0.140625 0.5q0 0.421875 0.3125 0.703125q0.328125 0.28125 0.9375 0.28125q0.609375 0 1.078125 -0.265625q0.484375 -0.265625 0.703125 -0.734375q0.171875 -0.359375 0.171875 -1.046875l0 -0.390625z" fill-rule="nonzero"/><path fill="#000000" d="m61.253292 190.74432l0 1.234375l-1.140625 0l0 -0.96875q0 -0.78125 0.1875 -1.140625q0.25 -0.46875 0.78125 -0.703125l0.265625 0.40625q-0.328125 0.140625 -0.484375 0.40625q-0.15625 0.265625 -0.171875 0.765625l0.5625 0zm1.8125 0l0 1.234375l-1.140625 0l0 -0.96875q0 -0.78125 0.1875 -1.140625q0.25 -0.46875 0.78125 -0.703125l0.265625 0.40625q-0.328125 0.140625 -0.484375 0.40625q-0.140625 0.265625 -0.15625 0.765625l0.546875 0zm3.6523476 6.21875l0.15625 0.921875q-0.453125 0.09375 -0.796875 0.09375q-0.578125 0 -0.890625 -0.171875q-0.3125 -0.1875 -0.453125 -0.484375q-0.125 -0.296875 -0.125 -1.25l0 -3.578125l-0.7656288 0l0 -0.8125l0.7656288 0l0 -1.546875l1.046875 -0.625l0 2.171875l1.0625 0l0 0.8125l-1.0625 0l0 3.640625q0 0.453125 0.046875 0.578125q0.0625 0.125 0.1875 0.203125q0.125 0.078125 0.359375 0.078125q0.1875 0 0.46875 -0.03125zm1.0214844 0.9375l0 -6.21875l0.953125 0l0 0.9375q0.359375 -0.65625 0.65625 -0.859375q0.3125 -0.21875 0.6875 -0.21875q0.53125 0 1.078125 0.328125l-0.359375 0.984375q-0.390625 -0.234375 -0.765625 -0.234375q-0.359375 0 -0.640625 0.21875q-0.265625 0.203125 -0.375 0.578125q-0.1875 0.5625 -0.1875 1.21875l0 3.265625l-1.046875 0zm8.261719 -2.0l1.09375 0.125q-0.25 0.953125 -0.953125 1.484375q-0.703125 0.53125 -1.78125 0.53125q-1.359375 0 -2.171875 -0.84375q-0.796875 -0.84375 -0.796875 -2.359375q0 -1.5625 0.8125 -2.421875q0.8125 -0.875 2.09375 -0.875q1.25 0 2.03125 0.84375q0.796875 0.84375 0.796875 2.390625q0 0.09375 0 0.28125l-4.640625 0q0.0625 1.03125 0.578125 1.578125q0.515625 0.53125 1.296875 0.53125q0.578125 0 0.984375 -0.296875q0.421875 -0.3125 0.65625 -0.96875zm-3.453125 -1.703125l3.46875 0q-0.0625 -0.796875 -0.390625 -1.1875q-0.515625 -0.609375 -1.3125 -0.609375q-0.734375 0 -1.234375 0.484375q-0.484375 0.484375 -0.53125 1.3125zm10.126953 1.703125l1.09375 0.125q-0.25 0.953125 -0.953125 1.484375q-0.703125 0.53125 -1.78125 0.53125q-1.359375 0 -2.171875 -0.84375q-0.796875 -0.84375 -0.796875 -2.359375q0 -1.5625 0.8125 -2.421875q0.8125 -0.875 2.09375 -0.875q1.25 0 2.03125 0.84375q0.796875 0.84375 0.796875 2.390625q0 0.09375 0 0.28125l-4.640625 0q0.0625 1.03125 0.578125 1.578125q0.515625 0.53125 1.296875 0.53125q0.578125 0 0.984375 -0.296875q0.421875 -0.3125 0.65625 -0.96875zm-3.453125 -1.703125l3.46875 0q-0.0625 -0.796875 -0.390625 -1.1875q-0.515625 -0.609375 -1.3125 -0.609375q-0.734375 0 -1.234375 0.484375q-0.484375 0.484375 -0.53125 1.3125zm5.455078 1.84375l1.03125 -0.15625q0.09375 0.625 0.484375 0.953125q0.40625 0.328125 1.140625 0.328125q0.71875 0 1.0625 -0.28125q0.359375 -0.296875 0.359375 -0.703125q0 -0.359375 -0.3125 -0.5625q-0.21875 -0.140625 -1.078125 -0.359375q-1.15625 -0.296875 -1.609375 -0.5q-0.4375 -0.21875 -0.671875 -0.59375q-0.234375 -0.375 -0.234375 -0.84375q0 -0.40625 0.1875 -0.765625q0.1875 -0.359375 0.515625 -0.59375q0.25 -0.171875 0.671875 -0.296875q0.421875 -0.125 0.921875 -0.125q0.71875 0 1.265625 0.21875q0.5625 0.203125 0.828125 0.5625q0.265625 0.359375 0.359375 0.953125l-1.03125 0.140625q-0.0625 -0.46875 -0.40625 -0.734375q-0.328125 -0.28125 -0.953125 -0.28125q-0.71875 0 -1.03125 0.25q-0.3125 0.234375 -0.3125 0.5625q0 0.203125 0.125 0.359375q0.140625 0.171875 0.40625 0.28125q0.15625 0.0625 0.9375 0.265625q1.125 0.3125 1.5625 0.5q0.4375 0.1875 0.6875 0.546875q0.25 0.359375 0.25 0.90625q0 0.53125 -0.3125 1.0q-0.296875 0.453125 -0.875 0.71875q-0.578125 0.25 -1.3125 0.25q-1.21875 0 -1.859375 -0.5q-0.625 -0.515625 -0.796875 -1.5zm6.140625 -5.59375l0 -1.21875l1.125 0l0 0.953125q0 0.796875 -0.1875 1.140625q-0.25 0.46875 -0.78125 0.71875l-0.25 -0.421875q0.3125 -0.125 0.46875 -0.40625q0.15625 -0.28125 0.171875 -0.765625l-0.546875 0zm1.8125 0l0 -1.21875l1.125 0l0 0.953125q0 0.796875 -0.171875 1.140625q-0.25 0.46875 -0.796875 0.71875l-0.25 -0.421875q0.3125 -0.125 0.46875 -0.40625q0.15625 -0.28125 0.171875 -0.765625l-0.546875 0z" fill-rule="nonzero"/><path fill="#000000" fill-opacity="0.0" d="m238.17586 257.61154l217.92125 -0.1574707" fill-rule="evenodd"/><path stroke="#4a86e8" stroke-width="4.0" stroke-linejoin="round" stroke-linecap="butt" d="m262.17584 257.5942l193.92126 -0.14013672" fill-rule="evenodd"/><path fill="#4a86e8" stroke="#4a86e8" stroke-width="4.0" stroke-linecap="butt" d="m262.17108 250.98727l-18.147614 6.620056l18.157166 6.593811z" fill-rule="evenodd"/><path fill="#f9cb9c" d="m307.51443 209.3084l79.24411 0l0 110.01576l-79.24411 0z" fill-rule="evenodd"/><path stroke="#000000" stroke-width="1.0" stroke-linejoin="round" stroke-linecap="butt" d="m307.51443 209.3084l79.24411 0l0 110.01576l-79.24411 0z" fill-rule="evenodd"/><path fill="#000000" d="m318.7488 231.1084l0 -6.90625l1.046875 0l0 0.96875q0.328125 -0.515625 0.859375 -0.8125q0.546875 -0.3125 1.234375 -0.3125q0.78125 0 1.265625 0.3125q0.484375 0.3125 0.6875 0.890625q0.828125 -1.203125 2.140625 -1.203125q1.03125 0 1.578125 0.578125q0.5625 0.5625 0.5625 1.734375l0 4.75l-1.171875 0l0 -4.359375q0 -0.703125 -0.125 -1.0q-0.109375 -0.3125 -0.40625 -0.5q-0.296875 -0.1875 -0.703125 -0.1875q-0.71875 0 -1.203125 0.484375q-0.484375 0.484375 -0.484375 1.546875l0 4.015625l-1.171875 0l0 -4.484375q0 -0.78125 -0.296875 -1.171875q-0.28125 -0.390625 -0.921875 -0.390625q-0.5 0 -0.921875 0.265625q-0.421875 0.25 -0.609375 0.75q-0.1875 0.5 -0.1875 1.453125l0 3.578125l-1.171875 0zm15.586792 0l0 -0.875q-0.65625 1.03125 -1.9375 1.03125q-0.8125 0 -1.515625 -0.453125q-0.6875 -0.453125 -1.078125 -1.265625q-0.375 -0.828125 -0.375 -1.890625q0 -1.03125 0.34375 -1.875q0.34375 -0.84375 1.03125 -1.28125q0.703125 -0.453125 1.546875 -0.453125q0.625 0 1.109375 0.265625q0.5 0.25 0.796875 0.671875l0 -3.421875l1.171875 0l0 9.546875l-1.09375 0zm-3.703125 -3.453125q0 1.328125 0.5625 1.984375q0.5625 0.65625 1.328125 0.65625q0.765625 0 1.296875 -0.625q0.53125 -0.625 0.53125 -1.90625q0 -1.421875 -0.546875 -2.078125q-0.546875 -0.671875 -1.34375 -0.671875q-0.78125 0 -1.3125 0.640625q-0.515625 0.625 -0.515625 2.0zm6.1624756 1.390625l1.15625 -0.1875q0.109375 0.703125 0.546875 1.078125q0.453125 0.359375 1.25 0.359375q0.8125 0 1.203125 -0.328125q0.390625 -0.328125 0.390625 -0.765625q0 -0.390625 -0.359375 -0.625q-0.234375 -0.15625 -1.1875 -0.390625q-1.296875 -0.328125 -1.796875 -0.5625q-0.484375 -0.25 -0.75 -0.65625q-0.25 -0.421875 -0.25 -0.9375q0 -0.453125 0.203125 -0.84375q0.21875 -0.40625 0.578125 -0.671875q0.28125 -0.1875 0.75 -0.328125q0.46875 -0.140625 1.015625 -0.140625q0.8125 0 1.421875 0.234375q0.609375 0.234375 0.90625 0.640625q0.296875 0.390625 0.40625 1.0625l-1.140625 0.15625q-0.078125 -0.53125 -0.453125 -0.828125q-0.375 -0.3125 -1.0625 -0.3125q-0.8125 0 -1.15625 0.265625q-0.34375 0.265625 -0.34375 0.625q0 0.234375 0.140625 0.421875q0.15625 0.1875 0.453125 0.3125q0.171875 0.0625 1.03125 0.296875q1.25 0.328125 1.734375 0.546875q0.5 0.203125 0.78125 0.609375q0.28125 0.40625 0.28125 1.0q0 0.59375 -0.34375 1.109375q-0.34375 0.515625 -1.0 0.796875q-0.640625 0.28125 -1.453125 0.28125q-1.34375 0 -2.046875 -0.5625q-0.703125 -0.5625 -0.90625 -1.65625zm7.1484375 -6.125l0 -1.359375l1.171875 0l0 1.359375l-1.171875 0zm0 8.1875l0 -6.90625l1.171875 0l0 6.90625l-1.171875 0zm2.945465 2.65625l0 -9.5625l1.078125 0l0 0.890625q0.375 -0.53125 0.84375 -0.78125q0.484375 -0.265625 1.15625 -0.265625q0.875 0 1.546875 0.453125q0.6875 0.453125 1.03125 1.28125q0.34375 0.828125 0.34375 1.828125q0 1.046875 -0.375 1.90625q-0.375 0.84375 -1.109375 1.296875q-0.71875 0.453125 -1.53125 0.453125q-0.578125 0 -1.046875 -0.25q-0.46875 -0.25 -0.765625 -0.625l0 3.375l-1.171875 0zm1.0625 -6.078125q0 1.34375 0.53125 1.984375q0.546875 0.625 1.3125 0.625q0.78125 0 1.34375 -0.65625q0.5625 -0.65625 0.5625 -2.046875q0 -1.3125 -0.546875 -1.96875q-0.546875 -0.671875 -1.296875 -0.671875q-0.75 0 -1.328125 0.703125q-0.578125 0.703125 -0.578125 2.03125zm5.2718506 6.078125l0 -0.859375l7.765625 0l0 0.859375l-7.765625 0zm8.037476 -10.453125l0.296875 -0.921875q1.03125 0.375 1.5 0.640625q-0.125 -1.1875 -0.125 -1.625l0.9375 0q-0.015625 0.640625 -0.140625 1.609375q0.65625 -0.328125 1.53125 -0.625l0.296875 0.921875q-0.828125 0.28125 -1.625 0.375q0.40625 0.34375 1.125 1.21875l-0.78125 0.5625q-0.375 -0.515625 -0.890625 -1.40625q-0.484375 0.921875 -0.84375 1.40625l-0.765625 -0.5625q0.75 -0.921875 1.078125 -1.21875q-0.84375 -0.171875 -1.59375 -0.375zm5.186798 0l0.296875 -0.921875q1.03125 0.375 1.5 0.640625q-0.125 -1.1875 -0.125 -1.625l0.9375 0q-0.015625 0.640625 -0.140625 1.609375q0.65625 -0.328125 1.53125 -0.625l0.296875 0.921875q-0.828125 0.28125 -1.625 0.375q0.40625 0.34375 1.125 1.21875l-0.78125 0.5625q-0.375 -0.515625 -0.890625 -1.40625q-0.484375 0.921875 -0.84375 1.40625l-0.765625 -0.5625q0.75 -0.921875 1.078125 -1.21875q-0.84375 -0.171875 -1.59375 -0.375zm5.1867676 0l0.296875 -0.921875q1.03125 0.375 1.5 0.640625q-0.125 -1.1875 -0.125 -1.625l0.9375 0q-0.015625 0.640625 -0.140625 1.609375q0.65625 -0.328125 1.53125 -0.625l0.296875 0.921875q-0.828125 0.28125 -1.625 0.375q0.40625 0.34375 1.125 1.21875l-0.78125 0.5625q-0.375 -0.515625 -0.890625 -1.40625q-0.484375 0.921875 -0.84375 1.40625l-0.765625 -0.5625q0.75 -0.921875 1.078125 -1.21875q-0.84375 -0.171875 -1.59375 -0.375z" fill-rule="nonzero"/><path fill="#ffff00" d="m370.6109 264.31677l0 0c0 -2.4265747 1.967102 -4.3937073 4.3936768 -4.3937073l0 0c1.1652832 0 2.282837 0.46292114 3.1068115 1.2868958c0.8240051 0.8239746 1.2868958 1.9415283 1.2868958 3.1068115l0 0c0 2.4265747 -1.9671326 4.3937073 -4.3937073 4.3937073l0 0c-2.4265747 0 -4.3936768 -1.9671326 -4.3936768 -4.3937073z" fill-rule="evenodd"/><path stroke="#000000" stroke-width="1.0" stroke-linejoin="round" stroke-linecap="butt" d="m370.6109 264.31677l0 0c0 -2.4265747 1.967102 -4.3937073 4.3936768 -4.3937073l0 0c1.1652832 0 2.282837 0.46292114 3.1068115 1.2868958c0.8240051 0.8239746 1.2868958 1.9415283 1.2868958 3.1068115l0 0c0 2.4265747 -1.9671326 4.3937073 -4.3937073 4.3937073l0 0c-2.4265747 0 -4.3936768 -1.9671326 -4.3936768 -4.3937073z" fill-rule="evenodd"/><path fill="#cfe2f3" d="m474.03412 37.160107l123.055115 0l0 56.12598l-123.055115 0z" fill-rule="evenodd"/><path stroke="#000000" stroke-width="1.0" stroke-linejoin="round" stroke-linecap="butt" d="m474.03412 37.160107l123.055115 0l0 56.12598l-123.055115 0z" fill-rule="evenodd"/><path fill="#000000" d="m494.00287 67.4556l1.765625 0.453125q-0.5625 2.171875 -2.0 3.328125q-1.4375 1.140625 -3.53125 1.140625q-2.15625 0 -3.515625 -0.875q-1.34375 -0.890625 -2.0625 -2.546875q-0.703125 -1.671875 -0.703125 -3.59375q0 -2.078125 0.796875 -3.625q0.796875 -1.5625 2.265625 -2.359375q1.484375 -0.8125 3.25 -0.8125q2.0 0 3.359375 1.015625q1.375 1.015625 1.90625 2.875l-1.734375 0.40625q-0.46875 -1.453125 -1.359375 -2.109375q-0.875 -0.671875 -2.203125 -0.671875q-1.546875 0 -2.578125 0.734375q-1.03125 0.734375 -1.453125 1.984375q-0.421875 1.234375 -0.421875 2.5625q0 1.703125 0.5 2.96875q0.5 1.265625 1.546875 1.90625q1.046875 0.625 2.265625 0.625q1.484375 0 2.515625 -0.859375q1.03125 -0.859375 1.390625 -2.546875zm3.6917114 4.6875l0 -13.359375l1.640625 0l0 13.359375l-1.640625 0zm4.191681 -11.46875l0 -1.890625l1.640625 0l0 1.890625l-1.640625 0zm0 11.46875l0 -9.671875l1.640625 0l0 9.671875l-1.640625 0zm10.769806 -3.109375l1.6875 0.203125q-0.40625 1.484375 -1.484375 2.3125q-1.0780945 0.8125 -2.7655945 0.8125q-2.125 0 -3.375 -1.296875q-1.234375 -1.3125 -1.234375 -3.671875q0 -2.453125 1.25 -3.796875q1.265625 -1.34375 3.265625 -1.34375q1.9375 0 3.1562195 1.328125q1.234375 1.3125 1.234375 3.703125q0 0.15625 0 0.4375l-7.2187195 0q0.09375 1.59375 0.90625 2.453125q0.8125 0.84375 2.015625 0.84375q0.90625 0 1.546875 -0.46875q0.6405945 -0.484375 1.0155945 -1.515625zm-5.3905945 -2.65625l5.4062195 0q-0.109375 -1.21875 -0.625 -1.828125q-0.7812195 -0.953125 -2.0312195 -0.953125q-1.125 0 -1.90625 0.765625q-0.765625 0.75 -0.84375 2.015625zm9.141327 5.765625l0 -9.671875l1.46875 0l0 1.375q1.0625 -1.59375 3.078125 -1.59375q0.875 0 1.609375 0.3125q0.734375 0.3125 1.09375 0.828125q0.375 0.5 0.515625 1.203125q0.09375 0.453125 0.09375 1.59375l0 5.953125l-1.640625 0l0 -5.890625q0 -1.0 -0.203125 -1.484375q-0.1875 -0.5 -0.671875 -0.796875q-0.484375 -0.296875 -1.140625 -0.296875q-1.046875 0 -1.8125 0.671875q-0.75 0.65625 -0.75 2.515625l0 5.28125l-1.640625 0zm13.953857 -1.46875l0.234375 1.453125q-0.6875 0.140625 -1.234375 0.140625q-0.890625 0 -1.390625 -0.28125q-0.484375 -0.28125 -0.6875 -0.734375q-0.203125 -0.46875 -0.203125 -1.9375l0 -5.578125l-1.203125 0l0 -1.265625l1.203125 0l0 -2.390625l1.625 -0.984375l0 3.375l1.65625 0l0 1.265625l-1.65625 0l0 5.671875q0 0.6875 0.078125 0.890625q0.09375 0.203125 0.28125 0.328125q0.203125 0.109375 0.578125 0.109375q0.265625 0 0.71875 -0.0625zm0.9489136 -1.421875l1.625 -0.25q0.125 0.96875 0.75 1.5q0.625 0.515625 1.75 0.515625q1.125 0 1.671875 -0.453125q0.546875 -0.46875 0.546875 -1.09375q0 -0.546875 -0.484375 -0.875q-0.328125 -0.21875 -1.671875 -0.546875q-1.8125 -0.46875 -2.515625 -0.796875q-0.6875 -0.328125 -1.046875 -0.90625q-0.359375 -0.59375 -0.359375 -1.3125q0 -0.640625 0.296875 -1.1875q0.296875 -0.5625 0.8125 -0.921875q0.375 -0.28125 1.03125 -0.46875q0.671875 -0.203125 1.421875 -0.203125q1.140625 0 2.0 0.328125q0.859375 0.328125 1.265625 0.890625q0.421875 0.5625 0.578125 1.5l-1.609375 0.21875q-0.109375 -0.75 -0.640625 -1.171875q-0.515625 -0.421875 -1.46875 -0.421875q-1.140625 0 -1.625 0.375q-0.46875 0.375 -0.46875 0.875q0 0.3125 0.1875 0.578125q0.203125 0.265625 0.640625 0.4375q0.234375 0.09375 1.4375 0.421875q1.75 0.453125 2.4375 0.75q0.6875 0.296875 1.078125 0.859375q0.390625 0.5625 0.390625 1.40625q0 0.828125 -0.484375 1.546875q-0.46875 0.71875 -1.375 1.125q-0.90625 0.390625 -2.046875 0.390625q-1.875 0 -2.875 -0.78125q-0.984375 -0.78125 -1.25 -2.328125z" fill-rule="nonzero"/><path fill="#cfe2f3" d="m482.27036 48.58005l123.055084 0l0 56.125988l-123.055084 0z" fill-rule="evenodd"/><path stroke="#000000" stroke-width="1.0" stroke-linejoin="round" stroke-linecap="butt" d="m482.27036 48.58005l123.055084 0l0 56.125988l-123.055084 0z" fill-rule="evenodd"/><path fill="#000000" d="m502.2391 78.87554l1.765625 0.453125q-0.5625 2.171875 -2.0 3.328125q-1.4375 1.140625 -3.53125 1.140625q-2.15625 0 -3.515625 -0.875q-1.34375 -0.890625 -2.0625 -2.546875q-0.703125 -1.671875 -0.703125 -3.59375q0 -2.078125 0.796875 -3.625q0.796875 -1.5625 2.265625 -2.359375q1.484375 -0.8125 3.25 -0.8125q2.0 0 3.359375 1.015625q1.375 1.015625 1.90625 2.875l-1.734375 0.40625q-0.46875 -1.453125 -1.359375 -2.109375q-0.875 -0.671875 -2.203125 -0.671875q-1.546875 0 -2.578125 0.734375q-1.03125 0.734375 -1.453125 1.984375q-0.421875 1.234375 -0.421875 2.5625q0 1.703125 0.5 2.96875q0.5 1.265625 1.546875 1.90625q1.046875 0.625 2.265625 0.625q1.484375 0 2.515625 -0.859375q1.03125 -0.859375 1.390625 -2.546875zm3.691681 4.6875l0 -13.359375l1.640625 0l0 13.359375l-1.640625 0zm4.1917114 -11.46875l0 -1.890625l1.640625 0l0 1.890625l-1.640625 0zm0 11.46875l0 -9.671875l1.640625 0l0 9.671875l-1.640625 0zm10.769836 -3.109375l1.6875 0.203125q-0.40625 1.484375 -1.484375 2.3125q-1.078125 0.8125 -2.765625 0.8125q-2.125 0 -3.375 -1.296875q-1.234375 -1.3125 -1.234375 -3.671875q0 -2.453125 1.25 -3.796875q1.265625 -1.34375 3.265625 -1.34375q1.9375 0 3.15625 1.328125q1.234375 1.3125 1.234375 3.703125q0 0.15625 0 0.4375l-7.21875 0q0.09375 1.59375 0.90625 2.453125q0.8125 0.84375 2.015625 0.84375q0.90625 0 1.546875 -0.46875q0.640625 -0.484375 1.015625 -1.515625zm-5.390625 -2.65625l5.40625 0q-0.109375 -1.21875 -0.625 -1.828125q-0.78125 -0.953125 -2.03125 -0.953125q-1.125 0 -1.90625 0.765625q-0.765625 0.75 -0.84375 2.015625zm9.141296 5.765625l0 -9.671875l1.46875 0l0 1.375q1.0625 -1.59375 3.078125 -1.59375q0.875 0 1.609375 0.3125q0.734375 0.3125 1.09375 0.828125q0.375 0.5 0.515625 1.203125q0.09375 0.453125 0.09375 1.59375l0 5.953125l-1.640625 0l0 -5.890625q0 -1.0 -0.203125 -1.484375q-0.1875 -0.5 -0.671875 -0.796875q-0.484375 -0.296875 -1.140625 -0.296875q-1.046875 0 -1.8125 0.671875q-0.75 0.65625 -0.75 2.515625l0 5.28125l-1.640625 0zm13.953857 -1.46875l0.234375 1.453125q-0.6875 0.140625 -1.234375 0.140625q-0.890625 0 -1.390625 -0.28125q-0.484375 -0.28125 -0.6875 -0.734375q-0.203125 -0.46875 -0.203125 -1.9375l0 -5.578125l-1.203125 0l0 -1.265625l1.203125 0l0 -2.390625l1.625 -0.984375l0 3.375l1.65625 0l0 1.265625l-1.65625 0l0 5.671875q0 0.6875 0.078125 0.890625q0.09375 0.203125 0.28125 0.328125q0.203125 0.109375 0.578125 0.109375q0.265625 0 0.71875 -0.0625zm0.9489136 -1.421875l1.625 -0.25q0.125 0.96875 0.75 1.5q0.625 0.515625 1.75 0.515625q1.125 0 1.671875 -0.453125q0.546875 -0.46875 0.546875 -1.09375q0 -0.546875 -0.484375 -0.875q-0.328125 -0.21875 -1.671875 -0.546875q-1.8125 -0.46875 -2.515625 -0.796875q-0.6875 -0.328125 -1.046875 -0.90625q-0.359375 -0.59375 -0.359375 -1.3125q0 -0.640625 0.296875 -1.1875q0.296875 -0.5625 0.8125 -0.921875q0.375 -0.28125 1.03125 -0.46875q0.671875 -0.203125 1.421875 -0.203125q1.140625 0 2.0 0.328125q0.859375 0.328125 1.265625 0.890625q0.421875 0.5625 0.578125 1.5l-1.609375 0.21875q-0.109375 -0.75 -0.640625 -1.171875q-0.515625 -0.421875 -1.46875 -0.421875q-1.140625 0 -1.625 0.375q-0.46875 0.375 -0.46875 0.875q0 0.3125 0.1875 0.578125q0.203125 0.265625 0.640625 0.4375q0.234375 0.09375 1.4375 0.421875q1.75 0.453125 2.4375 0.75q0.6875 0.296875 1.078125 0.859375q0.390625 0.5625 0.390625 1.40625q0 0.828125 -0.484375 1.546875q-0.46875 0.71875 -1.375 1.125q-0.90625 0.390625 -2.046875 0.390625q-1.875 0 -2.875 -0.78125q-0.984375 -0.78125 -1.25 -2.328125z" fill-rule="nonzero"/><path fill="#cfe2f3" d="m492.63516 59.51181l123.055145 0l0 56.125984l-123.055145 0z" fill-rule="evenodd"/><path stroke="#000000" stroke-width="1.0" stroke-linejoin="round" stroke-linecap="butt" d="m492.63516 59.51181l123.055145 0l0 56.125984l-123.055145 0z" fill-rule="evenodd"/><path fill="#000000" d="m536.6188 89.807304l1.765625 0.453125q-0.5625 2.171875 -2.0 3.328125q-1.4375 1.140625 -3.53125 1.140625q-2.15625 0 -3.515625 -0.875q-1.34375 -0.890625 -2.0625 -2.546875q-0.703125 -1.671875 -0.703125 -3.59375q0 -2.078125 0.796875 -3.625q0.796875 -1.5625 2.265625 -2.359375q1.484375 -0.8125 3.25 -0.8125q2.0 0 3.359375 1.015625q1.375 1.015625 1.90625 2.875l-1.734375 0.40625q-0.46875 -1.453125 -1.359375 -2.109375q-0.875 -0.671875 -2.203125 -0.671875q-1.546875 0 -2.578125 0.734375q-1.03125 0.734375 -1.453125 1.984375q-0.421875 1.234375 -0.421875 2.5625q0 1.703125 0.5 2.96875q0.5 1.265625 1.546875 1.90625q1.046875 0.625 2.265625 0.625q1.484375 0 2.515625 -0.859375q1.03125 -0.859375 1.390625 -2.546875zm3.6916504 4.6875l0 -13.359375l1.640625 0l0 13.359375l-1.640625 0zm4.1917114 -11.46875l0 -1.890625l1.640625 0l0 1.890625l-1.640625 0zm0 11.46875l0 -9.671875l1.640625 0l0 9.671875l-1.640625 0zm10.769836 -3.109375l1.6875 0.203125q-0.40625 1.484375 -1.484375 2.3125q-1.078125 0.8125 -2.765625 0.8125q-2.125 0 -3.375 -1.296875q-1.234375 -1.3125 -1.234375 -3.671875q0 -2.453125 1.25 -3.796875q1.265625 -1.34375 3.265625 -1.34375q1.9375 0 3.15625 1.328125q1.234375 1.3125 1.234375 3.703125q0 0.15625 0 0.4375l-7.21875 0q0.09375 1.59375 0.90625 2.453125q0.8125 0.84375 2.015625 0.84375q0.90625 0 1.546875 -0.46875q0.640625 -0.484375 1.015625 -1.515625zm-5.390625 -2.65625l5.40625 0q-0.109375 -1.21875 -0.625 -1.828125q-0.78125 -0.953125 -2.03125 -0.953125q-1.125 0 -1.90625 0.765625q-0.765625 0.75 -0.84375 2.015625zm9.141357 5.765625l0 -9.671875l1.46875 0l0 1.375q1.0625 -1.59375 3.078125 -1.59375q0.875 0 1.609375 0.3125q0.734375 0.3125 1.09375 0.828125q0.375 0.5 0.515625 1.203125q0.09375 0.453125 0.09375 1.59375l0 5.953125l-1.640625 0l0 -5.890625q0 -1.0 -0.203125 -1.484375q-0.1875 -0.5 -0.671875 -0.796875q-0.484375 -0.296875 -1.140625 -0.296875q-1.046875 0 -1.8125 0.671875q-0.75 0.65625 -0.75 2.515625l0 5.28125l-1.640625 0zm13.953796 -1.46875l0.234375 1.453125q-0.6875 0.140625 -1.234375 0.140625q-0.890625 0 -1.390625 -0.28125q-0.484375 -0.28125 -0.6875 -0.734375q-0.203125 -0.46875 -0.203125 -1.9375l0 -5.578125l-1.203125 0l0 -1.265625l1.203125 0l0 -2.390625l1.625 -0.984375l0 3.375l1.65625 0l0 1.265625l-1.65625 0l0 5.671875q0 0.6875 0.078125 0.890625q0.09375 0.203125 0.28125 0.328125q0.203125 0.109375 0.578125 0.109375q0.265625 0 0.71875 -0.0625zm0.9489746 -1.421875l1.625 -0.25q0.125 0.96875 0.75 1.5q0.625 0.515625 1.75 0.515625q1.125 0 1.671875 -0.453125q0.546875 -0.46875 0.546875 -1.09375q0 -0.546875 -0.484375 -0.875q-0.328125 -0.21875 -1.671875 -0.546875q-1.8125 -0.46875 -2.515625 -0.796875q-0.6875 -0.328125 -1.046875 -0.90625q-0.359375 -0.59375 -0.359375 -1.3125q0 -0.640625 0.296875 -1.1875q0.296875 -0.5625 0.8125 -0.921875q0.375 -0.28125 1.03125 -0.46875q0.671875 -0.203125 1.421875 -0.203125q1.140625 0 2.0 0.328125q0.859375 0.328125 1.265625 0.890625q0.421875 0.5625 0.578125 1.5l-1.609375 0.21875q-0.109375 -0.75 -0.640625 -1.171875q-0.515625 -0.421875 -1.46875 -0.421875q-1.140625 0 -1.625 0.375q-0.46875 0.375 -0.46875 0.875q0 0.3125 0.1875 0.578125q0.203125 0.265625 0.640625 0.4375q0.234375 0.09375 1.4375 0.421875q1.75 0.453125 2.4375 0.75q0.6875 0.296875 1.078125 0.859375q0.390625 0.5625 0.390625 1.40625q0 0.828125 -0.484375 1.546875q-0.46875 0.71875 -1.375 1.125q-0.90625 0.390625 -2.046875 0.390625q-1.875 0 -2.875 -0.78125q-0.984375 -0.78125 -1.25 -2.328125z" fill-rule="nonzero"/><path fill="#f9cb9c" d="m307.51443 22.81496l79.24411 0l0 110.01575l-79.24411 0z" fill-rule="evenodd"/><path stroke="#000000" stroke-width="1.0" stroke-linejoin="round" stroke-linecap="butt" d="m307.51443 22.81496l79.24411 0l0 110.01575l-79.24411 0z" fill-rule="evenodd"/><path fill="#000000" d="m331.66318 39.036835l0 -1.328125l1.328125 0l0 1.328125l-1.328125 0zm0 5.578125l0 -1.328125l1.328125 0l0 1.328125l-1.328125 0zm4.8592224 -5.171875q-0.734375 -0.265625 -1.09375 -0.765625q-0.34375 -0.5 -0.34375 -1.1875q0 -1.03125 0.75 -1.734375q0.75 -0.71875 1.984375 -0.71875q1.25 0 2.015625 0.734375q0.765625 0.71875 0.765625 1.75q0 0.671875 -0.359375 1.171875q-0.34375 0.484375 -1.046875 0.75q0.875 0.28125 1.328125 0.921875q0.46875 0.640625 0.46875 1.515625q0 1.234375 -0.875 2.0625q-0.859375 0.828125 -2.265625 0.828125q-1.421875 0 -2.28125 -0.828125q-0.859375 -0.84375 -0.859375 -2.09375q0 -0.921875 0.46875 -1.546875q0.46875 -0.640625 1.34375 -0.859375zm-0.234375 -1.984375q0 0.671875 0.4375 1.109375q0.4375 0.421875 1.125 0.421875q0.671875 0 1.109375 -0.421875q0.4375 -0.421875 0.4375 -1.046875q0 -0.640625 -0.453125 -1.078125q-0.4375 -0.4375 -1.109375 -0.4375q-0.671875 0 -1.109375 0.4375q-0.4375 0.421875 -0.4375 1.015625zm-0.375 4.40625q0 0.5 0.234375 0.96875q0.234375 0.46875 0.703125 0.734375q0.46875 0.25 1.015625 0.25q0.828125 0 1.375 -0.53125q0.546875 -0.546875 0.546875 -1.390625q0 -0.84375 -0.5625 -1.390625q-0.5625 -0.5625 -1.40625 -0.5625q-0.828125 0 -1.375 0.546875q-0.53125 0.546875 -0.53125 1.375zm6.2093506 -1.953125q0 -1.6875 0.34375 -2.71875q0.359375 -1.03125 1.046875 -1.59375q0.6875 -0.5625 1.71875 -0.5625q0.78125 0 1.359375 0.3125q0.578125 0.296875 0.953125 0.890625q0.375 0.578125 0.59375 1.421875q0.21875 0.828125 0.21875 2.25q0 1.671875 -0.359375 2.703125q-0.34375 1.03125 -1.03125 1.59375q-0.671875 0.5625 -1.734375 0.5625q-1.375 0 -2.15625 -0.984375q-0.953125 -1.1875 -0.953125 -3.875zm1.203125 0q0 2.34375 0.546875 3.125q0.5625 0.78125 1.359375 0.78125q0.8125 0 1.359375 -0.78125q0.5625 -0.78125 0.5625 -3.125q0 -2.359375 -0.5625 -3.125q-0.546875 -0.78125 -1.359375 -0.78125q-0.8125 0 -1.296875 0.6875q-0.609375 0.875 -0.609375 3.21875zm6.2093506 0q0 -1.6875 0.34375 -2.71875q0.359375 -1.03125 1.046875 -1.59375q0.6875 -0.5625 1.71875 -0.5625q0.78125 0 1.359375 0.3125q0.578125 0.296875 0.953125 0.890625q0.375 0.578125 0.59375 1.421875q0.21875 0.828125 0.21875 2.25q0 1.671875 -0.359375 2.703125q-0.34375 1.03125 -1.03125 1.59375q-0.671875 0.5625 -1.734375 0.5625q-1.375 0 -2.15625 -0.984375q-0.953125 -1.1875 -0.953125 -3.875zm1.203125 0q0 2.34375 0.546875 3.125q0.5625 0.78125 1.359375 0.78125q0.8125 0 1.359375 -0.78125q0.5625 -0.78125 0.5625 -3.125q0 -2.359375 -0.5625 -3.125q-0.546875 -0.78125 -1.359375 -0.78125q-0.8125 0 -1.296875 0.6875q-0.609375 0.875 -0.609375 3.21875zm6.2093506 0q0 -1.6875 0.34375 -2.71875q0.359375 -1.03125 1.046875 -1.59375q0.6875 -0.5625 1.71875 -0.5625q0.78125 0 1.359375 0.3125q0.578125 0.296875 0.953125 0.890625q0.375 0.578125 0.59375 1.421875q0.21875 0.828125 0.21875 2.25q0 1.671875 -0.359375 2.703125q-0.34375 1.03125 -1.03125 1.59375q-0.671875 0.5625 -1.734375 0.5625q-1.375 0 -2.15625 -0.984375q-0.953125 -1.1875 -0.953125 -3.875zm1.203125 0q0 2.34375 0.546875 3.125q0.5625 0.78125 1.359375 0.78125q0.8125 0 1.359375 -0.78125q0.5625 -0.78125 0.5625 -3.125q0 -2.359375 -0.5625 -3.125q-0.546875 -0.78125 -1.359375 -0.78125q-0.8125 0 -1.296875 0.6875q-0.609375 0.875 -0.609375 3.21875z" fill-rule="nonzero"/><path fill="#ffff00" d="m370.6109 77.82333l0 0c0 -2.4265747 1.967102 -4.3937073 4.3936768 -4.3937073l0 0c1.1652832 0 2.282837 0.46290588 3.1068115 1.2868881c0.8240051 0.82398224 1.2868958 1.941536 1.2868958 3.1068192l0 0c0 2.426567 -1.9671326 4.3936996 -4.3937073 4.3936996l0 0c-2.4265747 0 -4.3936768 -1.9671326 -4.3936768 -4.3936996z" fill-rule="evenodd"/><path stroke="#000000" stroke-width="1.0" stroke-linejoin="round" stroke-linecap="butt" d="m370.6109 77.82333l0 0c0 -2.4265747 1.967102 -4.3937073 4.3936768 -4.3937073l0 0c1.1652832 0 2.282837 0.46290588 3.1068115 1.2868881c0.8240051 0.82398224 1.2868958 1.941536 1.2868958 3.1068192l0 0c0 2.426567 -1.9671326 4.3936996 -4.3937073 4.3936996l0 0c-2.4265747 0 -4.3936768 -1.9671326 -4.3936768 -4.3936996z" fill-rule="evenodd"/></g></svg>